<svg width="16" height="17" viewBox="0 0 16 17" fill="none" xmlns="http://www.w3.org/2000/svg">
    <path d="M14 6.89185C14 11.5585 8 15.5585 8 15.5585C8 15.5585 2 11.5585 2 6.89185C2 5.30055 2.63214 3.77442 3.75736 2.6492C4.88258 1.52399 6.4087 0.891846 8 0.891846C9.5913 0.891846 11.1174 1.52399 12.2426 2.6492C13.3679 3.77442 14 5.30055 14 6.89185Z" stroke="#93C5FD" stroke-width="1.33333" stroke-linecap="round" stroke-linejoin="round"/>
    <path d="M8 8.89185C9.10457 8.89185 10 7.99642 10 6.89185C10 5.78728 9.10457 4.89185 8 4.89185C6.89543 4.89185 6 5.78728 6 6.89185C6 7.99642 6.89543 8.89185 8 8.89185Z" stroke="#93C5FD" stroke-width="1.33333" stroke-linecap="round" stroke-linejoin="round"/>
    </svg>
    