<svg width="38" height="31" viewBox="0 0 38 31" fill="none" xmlns="http://www.w3.org/2000/svg">
<path d="M2.29177 13.408C2.29177 13.408 18.7197 6.65841 24.425 4.27383C26.61 3.34424 34.0147 0.272565 34.0147 0.272565C34.0147 0.272565 37.4541 -1.0612 37.1708 2.17213C37.0899 3.50588 36.3211 8.15382 35.5523 13.2059C34.4194 20.3192 33.165 28.1197 33.165 28.1197C33.165 28.1197 32.9627 30.3021 31.3442 30.6659C29.7257 31.0296 27.0551 29.3321 26.61 28.9684C26.2458 28.6855 19.4885 24.4013 17.0203 22.3401C16.3729 21.7742 15.6041 20.6426 17.1012 19.3088C20.5406 16.1563 24.6273 12.2763 27.0956 9.81089C28.2285 8.67922 29.3615 6.01171 24.6273 9.24504C17.87 13.893 11.2341 18.258 11.2341 18.258C11.2341 18.258 9.6965 19.1875 6.86409 18.3388C4.03168 17.49 0.673251 16.3584 0.673251 16.3584C0.673251 16.3584 -1.63314 14.9438 2.29177 13.408Z" fill="#2CB5E5"/>
</svg>
