<svg width="34" height="34" viewBox="0 0 34 34" fill="none" xmlns="http://www.w3.org/2000/svg">
<path d="M0 33.7075L2.42778 24.6946C1.05204 22.2292 0.323699 19.4404 0.323699 16.6517C0.323699 7.47711 7.80935 0 16.9944 0C26.1795 0 33.6652 7.47711 33.6652 16.6517C33.6652 25.8263 26.1795 33.3033 16.9944 33.3033C14.243 33.3033 11.4915 32.6163 9.0637 31.2825L0 33.7075ZM9.5088 27.9279L10.0753 28.2513C12.1793 29.5042 14.5667 30.1508 16.9944 30.1508C24.4396 30.1508 30.5091 24.0884 30.5091 16.6517C30.5091 9.21503 24.4396 3.15252 16.9944 3.15252C9.54926 3.15252 3.47982 9.21503 3.47982 16.6517C3.47982 19.1171 4.16769 21.5421 5.4625 23.6437L5.82666 24.2096L4.49139 29.2617L9.5088 27.9279Z" fill="url(#paint0_linear_2_30)"/>
<path fill-rule="evenodd" clip-rule="evenodd" d="M23.1852 18.9555C22.4974 18.5513 21.6072 18.1067 20.7979 18.43C20.191 18.6725 19.7863 19.6425 19.3817 20.168C19.1794 20.4105 18.9366 20.4509 18.6129 20.3296C16.266 19.4001 14.4857 17.8642 13.2313 15.7221C13.029 15.3988 13.0695 15.1159 13.3123 14.833C13.7169 14.3884 14.2024 13.863 14.2834 13.2567C14.4048 12.6505 14.081 11.9229 13.8383 11.3571C13.5146 10.67 13.1504 9.65963 12.4625 9.25546C11.8151 8.89171 10.9654 9.09382 10.3989 9.57882C9.38734 10.3871 8.94226 11.64 8.94226 12.893C8.94226 13.2567 8.98272 13.6205 9.06364 13.9438C9.26596 14.7521 9.63013 15.5605 10.0752 16.288C10.3989 16.8538 10.7631 17.3792 11.1273 17.9046C12.3816 19.6021 13.9192 21.0571 15.6996 22.1484C16.5898 22.7142 17.5609 23.1588 18.5724 23.5226C19.7054 23.8863 20.6765 24.2905 21.8904 24.048C23.1448 23.8055 24.3991 23.0375 24.9251 21.7846C25.087 21.4209 25.1679 21.0167 25.0465 20.6529C24.9251 19.8042 23.8326 19.3596 23.1852 18.9555Z" fill="url(#paint1_linear_2_30)"/>
<defs>
<linearGradient id="paint0_linear_2_30" x1="27.7963" y1="32.6954" x2="3.54988" y2="8.42116" gradientUnits="userSpaceOnUse">
<stop stop-color="#00FB73"/>
<stop offset="1" stop-color="#00B25B"/>
</linearGradient>
<linearGradient id="paint1_linear_2_30" x1="29.6894" y1="30.8045" x2="5.44291" y2="6.53017" gradientUnits="userSpaceOnUse">
<stop stop-color="#00FB73"/>
<stop offset="1" stop-color="#00B25B"/>
</linearGradient>
</defs>
</svg>
