<svg width="39" height="28" viewBox="0 0 39 28" fill="none" xmlns="http://www.w3.org/2000/svg">
<path d="M38.6826 8.4875C38.6826 3.79917 34.8791 0 30.1854 0H8.49722C3.80352 0 0 3.79917 0 8.4875V18.5512C0 23.2396 3.80352 27.0387 8.49722 27.0387H30.1854C34.8791 27.0387 38.6826 23.2396 38.6826 18.5512V8.4875ZM25.8963 14.2671L16.1852 19.0767C15.821 19.2787 14.5262 18.9958 14.5262 18.5917V8.72999C14.5262 8.28541 15.821 8.0025 16.2257 8.245L25.5321 13.2971C25.8963 13.4992 26.3009 14.065 25.8963 14.2671Z" fill="url(#paint0_linear_2_33)"/>
<defs>
<linearGradient id="paint0_linear_2_33" x1="36.132" y1="26.3476" x2="0.357132" y2="-1.04752" gradientUnits="userSpaceOnUse">
<stop stop-color="#FF0000"/>
<stop offset="1" stop-color="#9B0000"/>
</linearGradient>
</defs>
</svg>
