<svg width="343" height="69" viewBox="0 0 343 69" fill="none" xmlns="http://www.w3.org/2000/svg">
<path d="M142.315 60.7331V48.0158H146.913C147.721 48.0158 148.34 48.0573 148.766 48.138C149.365 48.2413 149.867 48.4396 150.273 48.7305C150.677 49.0237 151.003 49.4321 151.251 49.9557C151.498 50.4792 151.62 51.0562 151.62 51.6866C151.62 52.7646 151.29 53.6787 150.63 54.4243C149.972 55.1734 148.779 55.5462 147.056 55.5462H143.932V60.7331H142.315ZM143.932 54.0551H147.078C148.121 54.0551 148.859 53.8533 149.298 53.4484C149.734 53.0436 149.952 52.4749 149.952 51.7377C149.952 51.2082 149.824 50.7523 149.565 50.3736C149.307 49.9948 148.968 49.7431 148.547 49.6221C148.276 49.5473 147.775 49.5093 147.045 49.5093H143.931V54.0563L143.932 54.0551ZM166.058 48.0158H167.674V55.361C167.674 56.6396 167.535 57.6547 167.26 58.4062C166.983 59.1541 166.484 59.7679 165.764 60.2381C165.041 60.7094 164.097 60.9456 162.924 60.9456C161.787 60.9456 160.854 60.7414 160.132 60.3295C159.406 59.9187 158.891 59.3263 158.581 58.5475C158.272 57.7699 158.115 56.7073 158.115 55.361V48.0158H159.732V55.3574C159.732 56.4616 159.831 57.2784 160.026 57.7995C160.222 58.3231 160.556 58.7291 161.036 59.0093C161.512 59.293 162.095 59.4355 162.785 59.4355C163.964 59.4355 164.806 59.1541 165.308 58.5938C165.809 58.0322 166.059 56.9542 166.059 55.3563V48.0146L166.058 48.0158ZM175.023 60.7331V48.0158H179.593C180.522 48.0158 181.268 48.1428 181.832 48.4004C182.393 48.658 182.833 49.0558 183.15 49.5912C183.471 50.1242 183.629 50.6834 183.629 51.2687C183.629 51.8113 183.488 52.3229 183.207 52.8026C182.928 53.2822 182.501 53.6704 181.931 53.966C182.668 54.1904 183.235 54.5763 183.629 55.12C184.027 55.6614 184.226 56.3037 184.226 57.0445C184.226 57.6428 184.104 58.1961 183.863 58.7077C183.622 59.2206 183.324 59.6136 182.969 59.8926C182.615 60.168 182.17 60.3782 181.637 60.5194C181.101 60.6619 180.446 60.7331 179.67 60.7331H175.024H175.023ZM176.637 53.3618H179.272C179.986 53.3618 180.499 53.3119 180.808 53.2134C181.219 53.0863 181.529 52.8726 181.735 52.577C181.942 52.2814 182.047 51.911 182.047 51.4646C182.047 51.0408 181.951 50.668 181.755 50.3486C181.562 50.0257 181.283 49.8037 180.924 49.6862C180.564 49.5674 179.946 49.5081 179.072 49.5081H176.637V53.3618ZM176.637 59.2408H179.671C180.193 59.2408 180.559 59.2206 180.771 59.1779C181.14 59.1102 181.45 58.9939 181.701 58.8312C181.95 58.6686 182.155 58.4323 182.316 58.1213C182.477 57.8102 182.557 57.4529 182.557 57.0457C182.557 56.5696 182.442 56.1576 182.206 55.8062C181.973 55.4536 181.65 55.2079 181.236 55.0654C180.825 54.9229 180.231 54.8529 179.455 54.8529H176.637V59.2396V59.2408ZM191.092 60.7331V48.0158H192.709V59.2408H198.697V60.7331H191.093H191.092ZM204.986 60.7331V48.0158H206.602V60.7331H204.986ZM222.841 56.2716L224.457 56.6978C224.12 58.0797 223.513 59.1304 222.637 59.8558C221.761 60.5812 220.689 60.9456 219.422 60.9456C218.112 60.9456 217.046 60.6666 216.225 60.1075C215.402 59.5507 214.779 58.7434 214.351 57.6868C213.922 56.6266 213.707 55.4928 213.707 54.2795C213.707 52.9569 213.948 51.8018 214.433 50.8152C214.918 49.8298 215.607 49.0807 216.501 48.569C217.393 48.0573 218.377 47.8021 219.449 47.8021C220.668 47.8021 221.691 48.125 222.52 48.772C223.349 49.4202 223.929 50.3284 224.255 51.5014L222.672 51.892C222.391 50.9695 221.981 50.294 221.445 49.8737C220.91 49.4499 220.235 49.2398 219.422 49.2398C218.489 49.2398 217.706 49.4736 217.08 49.9414C216.455 50.4092 216.011 51.0396 215.76 51.8267C215.505 52.6174 215.377 53.4306 215.377 54.2688C215.377 55.3491 215.527 56.293 215.827 57.0979C216.127 57.9064 216.594 58.5071 217.231 58.906C217.866 59.3061 218.552 59.5044 219.291 59.5044C220.194 59.5044 220.953 59.2313 221.577 58.6899C222.199 58.145 222.624 57.3401 222.844 56.268L222.841 56.2716ZM228.901 60.7331L233.573 48.0158H235.344L240.303 60.7331H238.47L237.061 56.8795H231.932L230.612 60.7331H228.901ZM232.405 55.5106H236.556L235.285 51.9858C234.903 50.9137 234.614 50.0293 234.412 49.33C234.244 50.1587 234.021 50.9731 233.74 51.778L232.404 55.5106H232.405ZM248.159 60.7331V49.5081H244.145V48.0158H253.79V49.5081H249.776V60.7331H248.161H248.159ZM260.146 60.7331V48.0158H261.761V60.7331H260.146ZM268.832 54.543C268.832 52.4357 269.376 50.7831 270.462 49.5912C271.548 48.398 272.948 47.8032 274.666 47.8032C275.791 47.8032 276.803 48.0834 277.708 48.6438C278.609 49.203 279.299 49.9841 279.772 50.9873C280.245 51.9882 280.483 53.1255 280.483 54.3946C280.483 55.6827 280.234 56.8367 279.735 57.8518C279.236 58.8704 278.529 59.6397 277.617 60.1609C276.7 60.6844 275.715 60.9456 274.658 60.9456C273.509 60.9456 272.487 60.6548 271.581 60.079C270.68 59.5008 269.993 58.7137 269.529 57.7141C269.063 56.7168 268.832 55.659 268.832 54.5442V54.543ZM270.499 54.5727C270.499 56.103 270.892 57.3092 271.682 58.1878C272.469 59.0675 273.459 59.5079 274.65 59.5079C275.864 59.5079 276.858 59.0639 277.644 58.1747C278.426 57.2867 278.817 56.0258 278.817 54.3922C278.817 53.3594 278.65 52.4571 278.315 51.6866C277.979 50.9173 277.49 50.3201 276.846 49.8963C276.199 49.4725 275.477 49.26 274.675 49.26C273.535 49.26 272.553 49.6684 271.732 50.4851C270.91 51.3019 270.499 52.6637 270.499 54.5727ZM287.264 60.7331V48.0158H288.92L295.31 57.9978V48.0158H296.858V60.7331H295.202L288.812 50.7511V60.7331H287.264Z" fill="#2B2A29"/>
<path fill-rule="evenodd" clip-rule="evenodd" d="M98.0155 38.7805H341.167V40.4841H98.0155V38.7805Z" fill="#2B2A29"/>
<path d="M104.156 36.0333V26.4668L96.1755 13.3042H101.328L106.476 22.3032L111.487 13.3042H116.544L108.563 26.4988V36.0333H104.155H104.156ZM118.718 13.3042H123.127V25.6203C123.127 27.578 123.182 28.8436 123.289 29.4193C123.476 30.3501 123.918 31.1016 124.617 31.6632C125.321 32.2295 126.279 32.5096 127.494 32.5096C128.727 32.5096 129.657 32.2461 130.286 31.7118C130.914 31.1776 131.29 30.527 131.417 29.7494C131.542 28.9706 131.61 27.686 131.61 25.8874V13.3054H136.019V25.257C136.019 27.9876 135.901 29.918 135.663 31.0446C135.425 32.1713 134.99 33.1234 134.351 33.9011C133.718 34.6787 132.867 35.2925 131.803 35.7531C130.735 36.2137 129.346 36.4464 127.628 36.4464C125.556 36.4464 123.985 36.1971 122.916 35.6949C121.846 35.1927 121 34.541 120.376 33.7372C119.753 32.9323 119.348 32.0965 119.15 31.212C118.861 29.9108 118.72 27.9852 118.72 25.4398V13.303L118.718 13.3042ZM146.242 36.0333L138.454 13.3042H143.217L148.746 30.1281L154.051 13.3042H158.734L150.992 36.0333H146.244H146.242ZM178.305 36.0333H173.559L171.678 30.8582H162.948L161.139 36.0333H156.478L164.931 13.3042H169.586L178.307 36.0333H178.305ZM170.249 27.0176L167.223 18.6051L164.285 27.0176H170.249ZM187.968 13.3042H192.377V25.6203C192.377 27.578 192.433 28.8436 192.54 29.4193C192.727 30.3501 193.168 31.1016 193.867 31.6632C194.571 32.2295 195.528 32.5096 196.744 32.5096C197.976 32.5096 198.908 32.2461 199.536 31.7118C200.165 31.1776 200.539 30.527 200.665 29.7494C200.792 28.9706 200.858 27.686 200.858 25.8874V13.3054H205.266V25.257C205.266 27.9876 205.148 29.918 204.911 31.0446C204.673 32.1713 204.238 33.1234 203.599 33.9011C202.965 34.6787 202.114 35.2925 201.05 35.7531C199.981 36.2137 198.593 36.4464 196.875 36.4464C194.804 36.4464 193.232 36.1971 192.164 35.6949C191.094 35.1927 190.249 34.541 189.624 33.7372C189.001 32.9323 188.597 32.0965 188.397 31.212C188.109 29.9108 187.968 27.9852 187.968 25.4398V13.303V13.3042ZM209.924 36.0333V13.3042H216.971C219.642 13.3042 221.379 13.4146 222.191 13.6425C223.436 13.9856 224.48 14.7265 225.322 15.8697C226.163 17.013 226.583 18.4887 226.583 20.298C226.583 21.6954 226.34 22.8648 225.86 23.8169C225.373 24.7691 224.76 25.5158 224.016 26.0607C223.27 26.6009 222.511 26.9606 221.741 27.1352C220.693 27.3512 219.176 27.4628 217.191 27.4628H214.332V36.0333H209.925H209.924ZM214.331 17.146V23.621H216.728C218.456 23.621 219.606 23.4987 220.19 23.2613C220.772 23.0239 221.227 22.6535 221.557 22.1394C221.886 21.6313 222.054 21.0448 222.054 20.3669C222.054 19.5358 221.821 18.8532 221.359 18.3142C220.893 17.7752 220.311 17.4357 219.596 17.298C219.074 17.1982 218.026 17.1448 216.445 17.1448H214.331V17.146ZM230.201 36.0333V13.3042H234.468L243.426 28.5361V13.3042H247.499V36.0333H243.096L234.275 21.0923V36.0333H230.201ZM252.004 36.0333V13.3042H256.413V36.0333H252.004ZM259.448 28.6678L263.734 28.2238C263.993 29.7221 264.508 30.8167 265.294 31.5207C266.079 32.2247 267.139 32.5738 268.472 32.5738C269.88 32.5738 270.945 32.2615 271.659 31.6382C272.374 31.0138 272.732 30.2836 272.732 29.4478C272.732 28.9088 272.582 28.4541 272.283 28.0719C271.984 27.6967 271.457 27.369 270.706 27.0936C270.195 26.9025 269.03 26.5748 267.205 26.0987C264.859 25.4849 263.213 24.7334 262.264 23.8395C260.933 22.5858 260.269 21.0578 260.269 19.2521C260.269 18.0934 260.583 17.0047 261.207 15.9932C261.835 14.9829 262.737 14.216 263.917 13.6865C265.098 13.157 266.517 12.8934 268.188 12.8934C270.91 12.8934 272.962 13.5226 274.335 14.787C275.714 16.0514 276.433 17.7337 276.503 19.8445L272.096 20.0036C271.907 18.8283 271.508 17.9877 270.894 17.4749C270.282 16.9608 269.36 16.702 268.133 16.702C266.866 16.702 265.873 16.9762 265.158 17.5271C264.697 17.8821 264.465 18.3522 264.465 18.9458C264.465 19.486 264.682 19.9454 265.118 20.3265C265.67 20.818 267.013 21.3273 269.146 21.8556C271.28 22.3792 272.856 22.9289 273.874 23.4892C274.898 24.0567 275.698 24.8237 276.277 25.8019C276.854 26.7802 277.143 27.9876 277.143 29.4205C277.143 30.7229 276.799 31.9445 276.104 33.0819C275.41 34.2192 274.432 35.0657 273.165 35.6166C271.898 36.1722 270.317 36.4464 268.427 36.4464C265.676 36.4464 263.562 35.7852 262.088 34.4579C260.613 33.1341 259.738 31.2025 259.449 28.669L259.448 28.6678ZM280.88 36.0333V13.3042H285.289V22.2557H293.864V13.3042H298.273V36.0333H293.864V26.0975H285.289V36.0333H280.88ZM322.445 36.0333H317.698L315.818 30.8582H307.088L305.279 36.0333H300.617L309.069 13.3042H313.725L322.446 36.0333H322.445ZM314.388 27.0176L311.363 18.6051L308.424 27.0176H314.388ZM324.79 13.3042H332.806C334.616 13.3042 335.994 13.4467 336.941 13.7375C338.212 14.1293 339.307 14.8274 340.214 15.8329C341.127 16.8326 341.815 18.0601 342.291 19.5157C342.762 20.9652 343 22.7591 343 24.8854C343 26.7588 342.777 28.3675 342.333 29.7221C341.791 31.3771 341.014 32.7162 340.007 33.7384C339.247 34.516 338.217 35.1191 336.926 35.5525C335.957 35.8754 334.665 36.0345 333.044 36.0345H324.79V13.3054V13.3042ZM329.198 17.146V32.1927H332.468C333.689 32.1927 334.571 32.1179 335.113 31.9754C335.827 31.7902 336.415 31.4732 336.88 31.028C337.351 30.5852 337.732 29.8539 338.027 28.8388C338.326 27.8226 338.473 26.4311 338.473 24.6753C338.473 22.9182 338.326 21.5755 338.027 20.6328C337.733 19.6914 337.317 18.9612 336.784 18.4317C336.252 17.9082 335.579 17.5485 334.758 17.3633C334.15 17.2196 332.949 17.146 331.166 17.146H329.2H329.198Z" fill="#2B2A29"/>
<path d="M2.87226 57.5087L2.28425 55.6127L3.64401 53.8652L1.59193 53.3808L1.00629 51.4943L4.61968 52.5545L6.74289 51.7709L7.27518 53.4853L5.15078 54.2676L2.87107 57.5099L2.87226 57.5087ZM0.31752 45.9928L0.108873 44.2072L3.27296 43.768C3.58474 43.724 3.88704 43.7383 4.17867 43.806C4.4703 43.8736 4.73348 44.0078 4.96821 44.2061C5.20531 44.4043 5.37721 44.6239 5.4922 44.8602C5.64987 45.1914 5.75775 45.601 5.81465 46.089C5.84666 46.3703 5.86444 46.679 5.868 47.0174C5.87037 47.3557 5.83244 47.6442 5.74945 47.8816C5.66884 48.1215 5.53962 48.347 5.36417 48.5595C5.18753 48.772 4.99903 48.9276 4.79631 49.0261C4.47267 49.1828 4.17867 49.2814 3.91786 49.317L0.753781 49.7551L0.545134 47.9695L3.78627 47.5207C4.07435 47.4816 4.29011 47.3605 4.43118 47.1658C4.57463 46.9663 4.62679 46.7134 4.59241 46.4036C4.55566 46.0985 4.44896 45.8681 4.2664 45.715C4.08739 45.5642 3.8491 45.5072 3.55629 45.5476L0.31752 45.9964V45.9928ZM-0.00019249 42.3837L0.131397 40.5055L4.06368 39.5142L0.312778 37.9044L0.43844 36.0796L5.62616 38.682L5.48983 40.6278L-0.00256348 42.3837H-0.00019249ZM5.64276 32.689L5.22191 34.6811L6.01974 35.1821L5.64039 36.976L0.877073 33.5224L1.28488 31.6003L6.95154 30.7823L6.5627 32.6225L5.64276 32.6901V32.689ZM4.43592 32.778L2.43007 32.9264L4.17393 34.021L4.43711 32.778H4.43592ZM4.88997 21.6123L5.64276 20.0096L8.48083 21.5945C8.76179 21.75 9.00482 21.9471 9.20991 22.1834C9.41618 22.4172 9.56437 22.6903 9.65447 22.999C9.74575 23.3088 9.77657 23.5949 9.74693 23.8609C9.70781 24.2313 9.58452 24.6361 9.37825 25.0718C9.2597 25.3247 9.11388 25.5906 8.9408 25.872C8.76772 26.1522 8.58634 26.3671 8.39666 26.5143C8.20461 26.6615 7.98292 26.7683 7.72804 26.8348C7.47079 26.9025 7.23487 26.9132 7.01674 26.8704C6.66821 26.8004 6.37658 26.7007 6.14303 26.5713L3.30496 24.9875L4.05775 23.3836L6.96458 25.0053C7.2242 25.1502 7.46486 25.1846 7.68299 25.1098C7.90112 25.0338 8.07776 24.8581 8.20698 24.5791C8.3362 24.3049 8.36702 24.0485 8.29589 23.8122C8.22713 23.5759 8.05879 23.3836 7.79561 23.2352L4.88997 21.6135V21.6123ZM6.87923 18.0839L8.57804 15.7261C8.95028 15.2121 9.33912 14.9224 9.74693 14.8595C10.1547 14.7965 10.5673 14.9426 10.9822 15.2976C11.4078 15.662 11.6402 16.087 11.6781 16.5702C11.716 17.0558 11.5287 17.5841 11.1174 18.1552L10.5566 18.9328L12.1132 20.2672L11.0889 21.6895L6.87923 18.0839ZM9.70426 18.2026L9.95558 17.8536C10.1536 17.577 10.2496 17.3467 10.2425 17.1615C10.2342 16.9739 10.1619 16.8243 10.0279 16.7068C9.89512 16.5928 9.74931 16.5453 9.58689 16.5643C9.42448 16.5809 9.24903 16.7234 9.05579 16.9905L8.76416 17.3965L9.70426 18.2015V18.2026ZM10.9052 12.6145L12.0729 11.5115L15.5262 12.5147L13.5903 10.0786L14.7722 8.9638L18.2766 13.3743L17.0958 14.4891L13.6626 13.4918L15.5879 15.9137L14.4119 17.0238L10.9063 12.6133L10.9052 12.6145ZM16.1166 7.88225L17.4692 6.83276L20.5717 11.5887L19.2202 12.6382L16.1166 7.88225ZM20.5314 9.30215L21.8828 8.42718C22.0275 8.6575 22.1792 8.81184 22.3321 8.88663C22.5823 9.01129 22.8478 8.99585 23.13 8.83914C23.3386 8.72279 23.4773 8.57796 23.5378 8.40819C23.6018 8.23604 23.6006 8.08052 23.533 7.93924C23.4714 7.80508 23.36 7.71486 23.2035 7.66737C23.0458 7.62107 22.7494 7.66143 22.3096 7.78609C21.5924 7.9891 21.0328 8.0354 20.6345 7.92618C20.2362 7.81933 19.9398 7.56408 19.7489 7.15687C19.6245 6.89093 19.577 6.60007 19.6079 6.28427C19.6363 5.96729 19.7632 5.66217 19.9837 5.36775C20.2054 5.07332 20.5634 4.7872 21.0601 4.51177C21.6706 4.17104 22.1899 4.03689 22.6261 4.10575C23.0612 4.1746 23.4358 4.46072 23.7512 4.96647L22.408 5.82838C22.261 5.61231 22.1021 5.48528 21.935 5.44491C21.7667 5.40218 21.5782 5.44135 21.3695 5.55651C21.1988 5.65268 21.0886 5.76427 21.0399 5.89249C20.9902 6.01952 20.9913 6.13943 21.0459 6.2534C21.0862 6.33651 21.1549 6.38993 21.2557 6.41843C21.3553 6.44929 21.5509 6.41961 21.8366 6.33413C22.5526 6.12637 23.0837 6.02309 23.4323 6.0219C23.7832 6.0219 24.076 6.09907 24.3107 6.25815C24.5431 6.41724 24.728 6.63806 24.862 6.9218C25.0173 7.25422 25.0766 7.60801 25.0422 7.98435C25.0031 8.35832 24.8691 8.7038 24.6332 9.01841C24.3996 9.33183 24.0523 9.61795 23.5899 9.87557C22.7803 10.3267 22.1389 10.4704 21.6694 10.3042C21.1976 10.1391 20.8194 9.80672 20.5314 9.30453V9.30215ZM24.9758 2.60037L26.5655 2.10886L27.0777 4.06775L28.8168 3.52876L28.3058 1.56868L29.9039 1.0748L31.3644 6.68792L29.7687 7.1818L29.1772 4.90948L27.4357 5.44848L28.0284 7.72079L26.4387 8.21348L24.9758 2.59918V2.60037ZM35.6073 5.10537L33.7484 5.363L33.5919 6.35313L31.9168 6.58463L33.241 0.519191L35.0382 0.269878L37.7032 5.78327L35.9843 6.02071L35.6085 5.10419L35.6073 5.10537ZM35.1129 3.89917L34.2914 1.89991L33.9523 4.06182L35.1129 3.89917ZM38.6232 0.00038147L41.0748 0.203394C41.5573 0.243759 41.9438 0.348233 42.2295 0.51563C42.5163 0.684213 42.7487 0.908595 42.9253 1.18996C43.1008 1.47489 43.2205 1.79663 43.281 2.15991C43.345 2.52201 43.3628 2.90073 43.3355 3.29726C43.2917 3.91935 43.1933 4.39542 43.0403 4.72665C42.8874 5.06026 42.6871 5.33094 42.4393 5.54345C42.1915 5.75596 41.9331 5.89012 41.664 5.94592C41.2941 6.02071 40.9633 6.04683 40.6682 6.0219L38.2177 5.8177L38.6244 0.00038147H38.6232ZM40.1786 1.45352L39.9569 4.6293L40.3611 4.66255C40.7073 4.69223 40.9562 4.66848 41.108 4.59962C41.2574 4.5272 41.383 4.39067 41.4802 4.19122C41.5786 3.99059 41.6426 3.65698 41.6746 3.19041C41.7185 2.57425 41.6557 2.14567 41.4862 1.90348C41.3178 1.6601 41.0179 1.52119 40.5899 1.48677L40.1774 1.45234L40.1786 1.45352ZM48.1854 1.4096L50.7911 2.37123C51.3589 2.58018 51.7383 2.88411 51.9292 3.28301C52.1188 3.68191 52.1319 4.15323 51.9624 4.69697C51.7905 5.25615 51.4988 5.63724 51.0946 5.83669C50.6891 6.03852 50.1687 6.0219 49.5357 5.78802L48.6762 5.47103L48.0407 7.51659L46.4676 6.93605L48.1842 1.40841L48.1854 1.4096ZM49.0235 4.35268L49.41 4.49515C49.7147 4.60793 49.9458 4.6293 50.1035 4.55807C50.2612 4.48921 50.3679 4.36574 50.4236 4.18766C50.4793 4.01314 50.4698 3.84812 50.3999 3.68666C50.3311 3.52639 50.1497 3.39223 49.8545 3.28301L49.4052 3.11799L49.0223 4.35387L49.0235 4.35268ZM57.0861 5.35113L58.5561 6.17149L57.1027 9.26654C56.9604 9.57165 56.779 9.83758 56.5621 10.0608C56.3475 10.2852 56.0962 10.4466 55.814 10.5452C55.5307 10.6449 55.2675 10.6781 55.0233 10.6473C54.6819 10.6021 54.312 10.468 53.9125 10.2448C53.6801 10.1154 53.4359 9.9563 53.1775 9.76872C52.9202 9.57996 52.7234 9.38169 52.5883 9.17512C52.4532 8.96736 52.3571 8.72398 52.2943 8.44499C52.2315 8.16599 52.2208 7.90837 52.2623 7.67093C52.3263 7.29102 52.4176 6.97285 52.5373 6.7176L53.9907 3.62374L55.4607 4.44529L53.973 7.61276C53.8402 7.89531 53.8082 8.15768 53.8769 8.39631C53.9469 8.63494 54.1081 8.82608 54.363 8.96973C54.6155 9.10983 54.849 9.14307 55.0672 9.0659C55.2829 8.9911 55.4596 8.80827 55.5971 8.52097L57.0849 5.3535L57.0861 5.35113ZM60.3568 7.50353L62.793 9.59064C63.1985 9.93849 63.4296 10.316 63.4901 10.7209C63.5494 11.1257 63.464 11.4902 63.2293 11.8131C63.0349 12.085 62.7883 12.2512 62.4931 12.3117C62.2975 12.3533 62.0711 12.326 61.8174 12.231C62.0628 12.5693 62.1861 12.8946 62.1908 13.2104C62.1944 13.5239 62.09 13.829 61.8802 14.1198C61.7083 14.3585 61.5044 14.5282 61.2649 14.6315C61.0278 14.7336 60.7801 14.7645 60.524 14.7253C60.3663 14.6992 60.166 14.609 59.9206 14.4511C59.5993 14.2409 59.3895 14.0961 59.2946 14.0142L57.0481 12.0897L60.3545 7.50116L60.3568 7.50353ZM60.3699 10.4276L60.9365 10.9144C61.1393 11.0877 61.3088 11.172 61.4427 11.1625C61.5779 11.1542 61.6976 11.0782 61.802 10.9346C61.8968 10.8016 61.9324 10.6615 61.9075 10.519C61.8826 10.3754 61.77 10.2199 61.5743 10.0513L60.997 9.5574L60.3699 10.4276ZM59.0706 12.2286L59.7356 12.7961C59.9585 12.9872 60.1482 13.0798 60.3023 13.0727C60.4564 13.0656 60.588 12.9884 60.6911 12.8424C60.7895 12.7059 60.8216 12.5598 60.7919 12.3984C60.7611 12.2381 60.6295 12.06 60.4007 11.8653L59.7404 11.2978L59.0706 12.2274V12.2286ZM65.6347 12.2595L66.717 13.6212L63.6656 16.5026L65.3596 18.6348L64.365 19.5739L61.5898 16.0823L65.6358 12.2607L65.6347 12.2595ZM69.1413 16.9501L70.104 18.4247L65.7402 21.8058L64.7799 20.3313L69.1413 16.949V16.9501ZM70.1099 25.2155L70.3814 26.8396C69.9759 26.9452 69.6037 26.9678 69.2658 26.8978C68.9268 26.8313 68.6268 26.6805 68.3625 26.4478C68.0981 26.2163 67.8563 25.8673 67.637 25.4019C67.3714 24.8368 67.2315 24.3346 67.2102 23.8917C67.1936 23.4489 67.3145 22.9942 67.5706 22.5217C67.8254 22.0516 68.251 21.6491 68.8414 21.3191C69.6286 20.8798 70.3422 20.7706 70.98 20.9914C71.6167 21.2146 72.1323 21.7417 72.5259 22.5787C72.833 23.2328 72.9551 23.8158 72.8863 24.3251C72.8199 24.8344 72.5793 25.3223 72.162 25.783L71.2088 24.5293C71.3286 24.3999 71.4116 24.2895 71.4519 24.198C71.5206 24.0449 71.5562 23.8858 71.555 23.7243C71.555 23.5605 71.5171 23.3979 71.44 23.2364C71.2681 22.8719 71.0038 22.6677 70.6457 22.6226C70.3778 22.5882 70.0305 22.6891 69.6061 22.9265C69.0785 23.221 68.7584 23.5095 68.6446 23.7932C68.5332 24.0781 68.5498 24.3785 68.7003 24.6943C68.8438 25.0018 69.0299 25.1917 69.2646 25.2582C69.4946 25.3283 69.7791 25.3128 70.1123 25.2167L70.1099 25.2155ZM70.9516 31.5943L70.3505 29.6592L69.4306 29.6901L68.8888 27.9461L74.6053 28.1562L75.1862 30.026L70.7584 33.9676L70.2024 32.1785L70.9528 31.5943H70.9516ZM71.9379 30.8274L73.5739 29.5523L71.5621 29.6188L71.9379 30.8274ZM75.824 32.6379L76.7072 38.0385L75.4055 38.2914L75.1079 36.4773L71.1413 37.2502L70.8496 35.4789L74.8163 34.706L74.5187 32.8932L75.8228 32.6391L75.824 32.6379ZM76.655 39.7861L76.6965 41.5942L71.3464 41.7426L71.3037 39.9345L76.655 39.7873V39.7861ZM74.1892 43.1756C75.0558 43.2955 75.7007 43.6516 76.1192 44.244C76.5424 44.8376 76.6965 45.6046 76.5874 46.5448C76.4748 47.5077 76.1512 48.2164 75.6177 48.6735C75.0818 49.1294 74.3872 49.2968 73.5336 49.1781C72.9124 49.0926 72.4169 48.9086 72.0458 48.626C71.6783 48.3435 71.4056 47.9707 71.2361 47.51C71.0642 47.0482 71.018 46.4962 71.0927 45.8539C71.1685 45.2021 71.3274 44.675 71.5657 44.2737C71.8087 43.8713 72.1501 43.5661 72.5935 43.3584C73.0381 43.1494 73.5692 43.0889 74.1892 43.1744V43.1756ZM73.977 44.9611C73.4411 44.8863 73.0428 44.9433 72.7844 45.1273C72.5259 45.3149 72.3742 45.5951 72.3303 45.9679C72.2865 46.3537 72.3659 46.6671 72.5698 46.9093C72.7749 47.1527 73.1732 47.3142 73.7683 47.3961C74.2662 47.4661 74.6444 47.4056 74.8993 47.218C75.1553 47.0292 75.3071 46.7479 75.3498 46.3691C75.3924 46.0094 75.3083 45.7019 75.0996 45.4514C74.8934 45.1986 74.5164 45.0359 73.977 44.9599V44.9611ZM75.7777 51.391L75.3569 53.0092L71.9652 54.2344L74.808 55.1141L74.3812 56.7525L69.2314 55.158L69.6594 53.5209L73.0321 52.3028L70.2035 51.4278L70.6291 49.7966L75.7789 51.391H75.7777Z" fill="#2B2A29"/>
<path d="M72.8747 2.73211C75.4104 2.73211 77.4685 4.87739 77.4685 7.52605C77.4685 10.1723 75.4104 12.3188 72.8747 12.3188C70.3377 12.3188 68.2809 10.1723 68.2809 7.52605C68.2809 4.87739 70.3377 2.73211 72.8747 2.73211Z" stroke="#2B2A29" stroke-width="0.378329" stroke-miterlimit="22.9256"/>
<path fill-rule="evenodd" clip-rule="evenodd" d="M36.9945 13.5642C40.9552 13.5642 44.1667 17.0593 44.1667 21.3701C44.1667 25.6808 40.954 29.176 36.9945 29.176C33.0338 29.176 29.8223 25.6808 29.8223 21.3701C29.8223 17.0605 33.0338 13.5642 36.9945 13.5642Z" fill="#D9DADA"/>
<path fill-rule="evenodd" clip-rule="evenodd" d="M27.0756 30.4546L26.7922 44.6429C26.8065 50.2477 30.3973 54.9087 35.751 54.9942L35.738 41.3199C35.7344 36.9261 34.0285 33.6399 30.2669 31.916L27.0756 30.4546Z" fill="url(#paint0_linear_2_7)"/>
<path fill-rule="evenodd" clip-rule="evenodd" d="M35.751 41.4161L23.5511 36.4061C18.7783 34.2988 16.1453 28.935 18.0717 23.4964L29.7227 28.6156C33.4665 30.2599 35.6312 33.2077 35.6964 37.6491L35.751 41.4161Z" fill="url(#paint1_linear_2_7)"/>
<path fill-rule="evenodd" clip-rule="evenodd" d="M46.9136 30.4546L47.1969 44.6429C47.1827 50.2477 43.5918 54.9087 38.2382 54.9942L38.2512 41.3199C38.2548 36.9261 39.9607 33.6399 43.7223 31.916L46.9136 30.4546Z" fill="url(#paint2_linear_2_7)"/>
<path fill-rule="evenodd" clip-rule="evenodd" d="M38.2382 41.4161L50.4381 36.4061C55.2097 34.2988 57.8438 28.935 55.9174 23.4964L44.2664 28.6156C40.5226 30.2599 38.3579 33.2077 38.2927 37.6491L38.2382 41.4161Z" fill="url(#paint3_linear_2_7)"/>
<path fill-rule="evenodd" clip-rule="evenodd" d="M36.9945 17.1781C40.0377 17.1781 42.5059 19.8647 42.5059 23.177C42.5059 26.4893 40.0377 29.176 36.9945 29.176C33.9502 29.176 31.4832 26.4893 31.4832 23.177C31.4832 19.8647 33.9514 17.1781 36.9945 17.1781Z" fill="#5B5B5B"/>
<path d="M5.04437 65.8536C4.83217 65.3751 4.7729 64.9014 4.87011 64.4289C4.96732 63.9588 5.17359 63.51 5.48656 63.0862C5.79953 62.6612 6.19667 62.2634 6.6768 61.8954C7.15811 61.5262 7.6738 61.2021 8.22268 60.9207C8.77038 60.6382 9.3323 60.4102 9.90727 60.2345C10.4834 60.0588 11.0216 59.9531 11.5267 59.9187C12.0305 59.8831 12.4739 59.9211 12.8591 60.0339C13.2432 60.1467 13.5195 60.3544 13.6878 60.656C13.7388 60.7545 13.7518 60.853 13.7257 60.9516C13.7008 61.0501 13.6475 61.1463 13.5704 61.2413C13.4934 61.3362 13.3962 61.4253 13.28 61.5048C13.1626 61.5855 13.0429 61.658 12.9172 61.7209C12.7904 61.7838 12.6683 61.8337 12.5485 61.8681C12.4288 61.9037 12.3269 61.9203 12.2427 61.9203C12.1016 61.9203 11.9854 61.8966 11.8942 61.8467C11.8041 61.7981 11.7365 61.7446 11.6914 61.6876C11.6452 61.6318 11.6215 61.5784 11.6179 61.525C11.6156 61.4728 11.6298 61.4395 11.6618 61.4253C11.7649 61.3968 11.9143 61.3564 12.1123 61.303C12.3091 61.2508 12.5011 61.1866 12.6884 61.1095C12.8757 61.0323 13.0299 60.9421 13.1484 60.84C13.2681 60.7391 13.2978 60.6168 13.2409 60.4767C13.1958 60.3782 13.082 60.3176 12.9006 60.2927C12.7204 60.2677 12.5165 60.2677 12.2901 60.2927C12.0649 60.3176 11.8325 60.3568 11.599 60.4138C11.3619 60.4696 11.1639 60.5266 11.0027 60.5824C10.6079 60.7153 10.1764 60.8898 9.7081 61.1047C9.24102 61.3184 8.77631 61.563 8.31989 61.8372C7.86111 62.1127 7.42366 62.4071 7.00636 62.7229C6.59026 63.0387 6.23461 63.3664 5.94061 63.7035C5.64779 64.0407 5.43321 64.379 5.30163 64.721C5.16885 65.0605 5.15462 65.3941 5.25776 65.717C5.31585 65.8927 5.4178 66.0269 5.56362 66.1171C5.70943 66.2085 5.87896 66.2691 6.07575 66.2976C6.27373 66.3261 6.48712 66.3261 6.72066 66.2976C6.95302 66.2691 7.18063 66.2168 7.4035 66.1444C7.62638 66.0696 7.8374 65.9794 8.03774 65.8702C8.23809 65.761 8.4088 65.6422 8.55106 65.5164C8.66843 65.3051 8.7929 65.0961 8.92449 64.8895C9.05727 64.6818 9.19241 64.4906 9.32756 64.3149C9.46389 64.1392 9.59904 63.979 9.733 63.8341C9.86933 63.6905 9.99855 63.5777 10.1218 63.4922C10.1859 63.4435 10.2605 63.4127 10.3447 63.4032C10.4277 63.3913 10.5012 63.396 10.5664 63.4127C10.6328 63.4305 10.6826 63.4578 10.7181 63.4922C10.7525 63.5278 10.7608 63.5587 10.743 63.586C10.4585 64.0075 10.1942 64.4111 9.95232 64.7934C9.70929 65.1768 9.48405 65.5627 9.27303 65.9533C9.0632 66.3427 8.8664 66.7475 8.67673 67.1654C8.48942 67.5833 8.30685 68.038 8.12547 68.5307C8.10532 68.5794 8.07449 68.5936 8.02826 68.5723C7.9844 68.5509 7.93816 68.507 7.89193 68.4405C7.84806 68.3728 7.80894 68.2873 7.77575 68.1817C7.74256 68.076 7.72952 67.9597 7.73781 67.8326C7.75678 67.3411 7.87652 66.8639 8.09583 66.3997C7.85044 66.5267 7.5754 66.6181 7.2731 66.6739C6.96843 66.7297 6.66968 66.7404 6.37568 66.7048C6.08286 66.6692 5.81494 66.5825 5.57666 66.4424C5.33838 66.3023 5.16055 66.1052 5.04319 65.8524L5.04437 65.8536ZM41.4473 63.8294C41.4924 63.7866 41.535 63.7629 41.5777 63.7605C41.6192 63.7558 41.6524 63.7664 41.6749 63.7866C41.6963 63.808 41.7058 63.8389 41.7034 63.8804C41.701 63.9232 41.6761 63.9718 41.6299 64.0288C41.605 64.0632 41.5327 64.1369 41.4177 64.2449C41.3015 64.3541 41.1533 64.4978 40.9719 64.677C40.7917 64.8551 40.5878 65.0641 40.3614 65.3039C40.1362 65.5425 39.9002 65.8037 39.6537 66.0851C39.3632 66.4222 39.1238 66.7535 38.9364 67.0811C38.7491 67.4064 38.595 67.7044 38.4717 67.9715C38.3484 68.2387 38.25 68.4618 38.1754 68.6399C38.1007 68.8204 38.0355 68.9237 37.9762 68.9522C37.9193 68.9807 37.8422 68.9961 37.7498 68.9985C37.6549 69.002 37.5696 68.9925 37.4925 68.9676C37.4155 68.9439 37.3586 68.9047 37.3242 68.8513C37.2886 68.799 37.2993 68.723 37.3574 68.6245C37.4024 68.5616 37.4878 68.4179 37.6146 68.1924C37.7403 67.968 37.892 67.6985 38.0699 67.3815C38.2465 67.0657 38.4433 66.7131 38.6555 66.3273C38.8689 65.9402 39.0917 65.5508 39.3241 65.1567C39.2459 65.1709 39.1652 65.1697 39.0811 65.1519C38.9969 65.1329 38.9187 65.1021 38.844 65.0569C38.7693 65.0106 38.7053 64.9501 38.6496 64.8729C38.595 64.7958 38.5583 64.7043 38.5381 64.5975L38.5334 64.5797L38.3484 64.7827C38.2228 64.9192 38.1019 65.0451 37.9857 65.1567C37.8695 65.2695 37.7782 65.3371 37.7142 65.3573C37.617 65.4 37.5103 65.4131 37.3906 65.3941C37.2708 65.3775 37.1558 65.3442 37.0468 65.3003C36.9377 65.254 36.8452 65.1935 36.7705 65.1199C36.6959 65.0451 36.6567 64.9715 36.6496 64.8943C36.6437 64.8658 36.6556 64.81 36.684 64.7257C36.7125 64.6414 36.7468 64.5559 36.786 64.4716C36.8239 64.3874 36.8606 64.3102 36.8974 64.2401C36.933 64.1701 36.9519 64.1321 36.9519 64.125C36.9519 64.125 36.9045 64.1796 36.8097 64.2876C36.7172 64.398 36.6105 64.5156 36.492 64.6426C36.3722 64.7684 36.2513 64.8836 36.1328 64.9893C36.013 65.0949 35.9277 65.1484 35.8755 65.1484C35.7913 65.1484 35.7036 65.1175 35.6135 65.0581C35.5234 64.9976 35.4677 64.9085 35.4487 64.7898C35.4416 64.74 35.4499 64.6533 35.4736 64.531C35.4961 64.4075 35.5282 64.2781 35.5696 64.1404C35.6123 64.0039 35.6633 63.8697 35.7249 63.7403C35.7866 63.6097 35.8553 63.51 35.9336 63.44C35.9715 63.3972 36.0201 63.383 36.0735 63.3925C36.128 63.4043 36.1802 63.4281 36.2276 63.4673C36.2762 63.5053 36.3212 63.5551 36.3592 63.6145C36.3971 63.6738 36.4208 63.7285 36.4268 63.7771C36.4398 63.827 36.4386 63.8887 36.422 63.9611C36.4066 64.0359 36.3841 64.1084 36.3544 64.1832C36.3236 64.2579 36.2975 64.3232 36.2715 64.3838C36.2454 64.4432 36.23 64.4859 36.2228 64.5156C36.256 64.493 36.3295 64.4218 36.4457 64.2995C36.5619 64.176 36.684 64.0443 36.8144 63.903C36.9436 63.7629 37.0646 63.6359 37.1772 63.5231C37.2898 63.4103 37.3633 63.3485 37.3941 63.3343C37.4214 63.3201 37.4652 63.3189 37.5304 63.3284C37.5956 63.3402 37.6609 63.3604 37.7249 63.3913C37.7889 63.4233 37.8482 63.4613 37.8991 63.5076C37.9501 63.5527 37.9833 63.605 37.9963 63.6608C38.0094 63.7166 37.9845 63.8092 37.924 63.935C37.8624 64.0609 37.7972 64.1938 37.7249 64.3292C37.6537 64.4669 37.5909 64.5892 37.5364 64.6984C37.4807 64.8064 37.4688 64.8729 37.502 64.8931C37.5352 64.9145 37.6051 64.886 37.7142 64.8088C37.8245 64.7316 37.9454 64.6355 38.077 64.5239C38.2097 64.4111 38.3342 64.2971 38.4504 64.1808C38.5678 64.0656 38.6519 63.9825 38.7029 63.9338L38.7183 63.9208C38.7645 63.8448 38.8143 63.7712 38.8712 63.7011C38.9839 63.5611 39.1024 63.4376 39.2257 63.3319C39.349 63.2263 39.4486 63.1657 39.5256 63.1515C39.5837 63.1443 39.6489 63.1538 39.7201 63.1776C39.79 63.2025 39.8611 63.2369 39.9323 63.2773C40.0022 63.3212 40.065 63.3711 40.1208 63.4305C40.1753 63.491 40.2192 63.5551 40.2512 63.6252C40.3484 63.4708 40.4231 63.3865 40.474 63.3723C40.512 63.358 40.5618 63.3628 40.6234 63.3842C40.6851 63.4032 40.7431 63.434 40.7977 63.472C40.8534 63.5112 40.9008 63.5563 40.9387 63.6097C40.9779 63.662 40.9956 63.7142 40.9956 63.7629C40.9897 63.8187 40.9447 63.9053 40.8617 64.0217C40.7775 64.1369 40.6673 64.2781 40.5321 64.4467C40.3958 64.6153 40.2464 64.81 40.0816 65.0332C39.918 65.254 39.7509 65.5021 39.5837 65.7764C39.6027 65.755 39.675 65.6707 39.8007 65.5235C39.9263 65.3751 40.0816 65.2018 40.2666 65C40.4491 64.8005 40.6459 64.5939 40.8569 64.3838C41.0668 64.1725 41.2624 63.9873 41.4426 63.8258L41.4473 63.8294ZM40.052 63.9137C40.065 63.8852 40.065 63.8531 40.052 63.8187C40.0259 63.7486 39.9844 63.7213 39.9263 63.7403C39.8671 63.7569 39.803 63.8021 39.7319 63.8721C39.662 63.9422 39.5897 64.0276 39.5185 64.1309C39.4474 64.2318 39.3846 64.3351 39.33 64.436C39.2755 64.5381 39.234 64.6307 39.2079 64.715C39.183 64.7993 39.183 64.8563 39.2079 64.8836C39.2411 64.9192 39.298 64.9038 39.3822 64.8361C39.4664 64.7696 39.5541 64.6913 39.6442 64.5987L40.0508 63.9148L40.052 63.9137ZM41.8741 63.8816C42.0104 63.8614 42.1373 63.859 42.2558 63.878C42.3756 63.8947 42.4834 63.9243 42.5759 63.9659C42.6696 64.0086 42.7442 64.0644 42.7988 64.1345C42.8533 64.2045 42.8818 64.2864 42.8818 64.3779C42.8818 64.4693 42.8533 64.5785 42.7988 64.7055C42.7442 64.8326 42.6731 64.9548 42.5866 65.0736C42.4989 65.1935 42.3993 65.3027 42.2867 65.4012C42.174 65.4998 42.065 65.5627 41.963 65.5912C41.8528 65.6197 41.7461 65.6149 41.6429 65.5793C41.5398 65.5449 41.4473 65.4926 41.3667 65.4226C41.2861 65.3526 41.2197 65.273 41.1675 65.1852C41.1142 65.0973 41.0893 65.0178 41.0893 64.9477C41.0893 64.8979 41.1083 64.8421 41.1438 64.7791C41.1794 64.7162 41.2256 64.6545 41.2837 64.5951C41.3418 64.5346 41.407 64.4776 41.4781 64.4265C41.5481 64.3731 41.6192 64.3304 41.6903 64.2948C41.8006 64.239 41.8646 64.2378 41.8836 64.2888C41.9037 64.3422 41.8812 64.4075 41.816 64.4847C41.7959 64.5061 41.7662 64.5417 41.7247 64.5963C41.682 64.6473 41.6406 64.702 41.5979 64.753C41.5564 64.8064 41.5208 64.8575 41.4924 64.9062C41.4627 64.956 41.458 64.9905 41.4781 65.0118C41.509 65.0403 41.5671 65.0249 41.6465 64.9643C41.7271 64.905 41.8077 64.8278 41.8895 64.7328C41.9701 64.639 42.0413 64.5429 42.1029 64.4491C42.1645 64.3541 42.1906 64.2817 42.1835 64.233C42.1705 64.1832 42.1266 64.1618 42.0496 64.1642C41.9713 64.1689 41.8836 64.1713 41.7876 64.176C41.6903 64.1784 41.5919 64.1713 41.4912 64.1547C41.3916 64.1357 41.3157 64.0858 41.2624 64.0015C41.2055 63.9101 41.1818 63.8056 41.1913 63.6893C41.1996 63.5741 41.2316 63.4637 41.2825 63.358C41.3335 63.2524 41.3999 63.1633 41.4817 63.0897C41.5623 63.0149 41.6417 62.9722 41.7188 62.958C41.7698 62.9508 41.8255 62.9603 41.8836 62.9888C41.9417 63.0173 41.995 63.0553 42.0436 63.1004C42.0922 63.1467 42.1325 63.1966 42.1657 63.2536C42.1989 63.3094 42.2143 63.3616 42.2143 63.4103C42.2143 63.51 42.1705 63.5907 42.0887 63.6537C42.0045 63.7166 41.9334 63.7937 41.8765 63.8852L41.8741 63.8816ZM54.2827 59.8024C54.5672 59.8867 54.7901 59.9982 54.9513 60.1395C55.1137 60.2796 55.2073 60.4268 55.237 60.5824C55.2654 60.7379 55.2275 60.8875 55.1196 61.0311C55.0141 61.176 54.8387 61.2935 54.5921 61.3849C54.4368 61.4478 54.2933 61.4656 54.1605 61.4371C54.029 61.4086 53.9187 61.3659 53.8322 61.3054C53.7444 61.246 53.684 61.1843 53.6484 61.1213C53.6129 61.0584 53.614 61.0204 53.652 61.0062C53.7361 60.9848 53.8511 60.9516 53.997 60.9053C54.1428 60.8602 54.2696 60.7984 54.3799 60.7213C54.598 60.5598 54.6881 60.4197 54.6454 60.2998C54.6039 60.1799 54.4463 60.0932 54.176 60.041C53.9057 59.9876 53.5287 59.9721 53.0486 59.9923C52.5672 60.0137 52.0041 60.0837 51.358 60.2036C50.9502 60.2737 50.5329 60.3687 50.1074 60.4838C49.6818 60.6002 49.2609 60.7426 48.8484 60.9112C48.4358 61.0798 48.0351 61.2781 47.6522 61.5072C47.2681 61.7363 46.9136 61.9975 46.5912 62.2931C46.2806 62.5674 46.079 62.8179 45.9854 63.0482C45.8929 63.2761 45.8917 63.4495 45.9806 63.5694C46.0138 63.6121 46.0079 63.637 45.9664 63.6442C45.9237 63.6513 45.8692 63.6394 45.8016 63.6121C45.7329 63.5836 45.6641 63.5361 45.593 63.4696C45.5219 63.402 45.4733 63.3165 45.4472 63.2108C45.3701 62.9437 45.3796 62.6873 45.4756 62.4415C45.5728 62.1958 45.7234 61.9655 45.9273 61.7518C46.13 61.5369 46.3683 61.335 46.6433 61.1451C46.9172 60.9551 47.1982 60.783 47.4827 60.6275C47.9723 60.3532 48.5081 60.1288 49.0902 59.9531C49.6711 59.7774 50.2626 59.6551 50.8637 59.5839C51.4636 59.5151 52.0587 59.4961 52.6455 59.5317C53.2347 59.5673 53.78 59.6575 54.2838 59.8059L54.2827 59.8024ZM47.9474 66.2857C47.9924 65.9913 48.0671 65.6707 48.1703 65.3264C48.2734 64.9821 48.3943 64.6319 48.533 64.2781C48.6729 63.9232 48.8235 63.5717 48.9847 63.2239C49.1459 62.8772 49.3131 62.5567 49.4873 62.2646C49.6616 61.9738 49.8347 61.7161 50.0054 61.4941C50.1773 61.2733 50.3373 61.1107 50.4843 61.005C50.5756 60.9421 50.6752 60.897 50.7855 60.8732C50.8933 60.8483 50.9965 60.8376 51.0901 60.8412C51.1838 60.8459 51.2597 60.8554 51.3189 60.8732C51.3758 60.8898 51.396 60.91 51.3758 60.9302C51.2265 61.0988 51.0546 61.3172 50.8578 61.5891C50.6622 61.861 50.4594 62.1625 50.2532 62.4949C50.0457 62.8297 49.8382 63.1859 49.6332 63.5658C49.4257 63.9457 49.2396 64.3339 49.0724 64.7305C48.9041 65.1282 48.7583 65.5223 48.6362 65.9177C48.5129 66.3106 48.4322 66.6858 48.3931 67.0443C48.3801 67.1298 48.3445 67.1725 48.2864 67.1725C48.2295 67.1725 48.1703 67.1346 48.1122 67.0609C48.0553 66.9861 48.0055 66.8852 47.9616 66.7546C47.9201 66.6252 47.9166 66.4673 47.9474 66.2857ZM51.8607 63.155C51.9508 63.155 52.0338 63.18 52.1085 63.2298C52.1831 63.2797 52.2258 63.345 52.2389 63.4305C52.4072 63.4708 52.5269 63.5599 52.5981 63.6928C52.6692 63.8258 52.6977 63.9778 52.6858 64.1464C52.847 64.1677 53.0035 64.1392 53.1553 64.0621C53.307 63.9849 53.4255 63.8887 53.5097 63.7771C53.5607 63.7142 53.6081 63.6715 53.6496 63.6513C53.6911 63.6299 53.7243 63.6275 53.7504 63.6418C53.7765 63.656 53.7883 63.681 53.7883 63.7201C53.7883 63.7581 53.7753 63.8033 53.7504 63.8519C53.6472 64.0419 53.4979 64.214 53.2999 64.3684C53.1031 64.5227 52.8435 64.6212 52.5198 64.6652C52.4357 64.8053 52.3313 64.9323 52.2057 65.0439C52.08 65.1567 51.9306 65.241 51.754 65.2968C51.6769 65.3252 51.5821 65.3252 51.4683 65.2968C51.3557 65.2683 51.2466 65.216 51.1399 65.1377C51.0344 65.0605 50.9443 64.962 50.8744 64.8432C50.8032 64.7233 50.7772 64.5904 50.7949 64.4432C50.808 64.3031 50.8447 64.1558 50.9064 64.0063C50.968 63.8543 51.0463 63.7154 51.1399 63.5884C51.2336 63.4625 51.3414 63.358 51.4636 63.2773C51.5868 63.1966 51.7196 63.155 51.8607 63.155ZM51.473 64.8955C51.5062 64.9513 51.5726 64.9513 51.6758 64.8955C51.7801 64.8397 51.8808 64.7506 51.9769 64.6319C51.9057 64.5761 51.8441 64.5001 51.7931 64.4063C51.7398 64.3102 51.7054 64.1998 51.6864 64.0727C51.5762 64.2342 51.4991 64.3945 51.4541 64.5536C51.4102 64.7103 51.415 64.8266 51.473 64.8967V64.8955ZM57.2274 64.9691C56.8327 64.9691 56.5327 64.8931 56.3253 64.7435C56.1202 64.5916 56.0052 64.3897 55.9827 64.1369C55.9601 63.884 56.0241 63.5931 56.1759 63.2619C56.3288 62.9318 56.5624 62.5923 56.8789 62.2409C57.1942 61.8883 57.5902 61.5404 58.0644 61.1914C58.5386 60.8424 59.0875 60.5254 59.7063 60.2369C60.0951 60.054 60.4923 59.8973 60.8977 59.7679C61.3043 59.6373 61.7015 59.5376 62.0891 59.4676C62.4756 59.3975 62.8443 59.3572 63.1928 59.35C63.5414 59.3429 63.8543 59.3714 64.1329 59.4355C64.4103 59.4984 64.6439 59.5982 64.8347 59.7347C65.0268 59.8724 65.1536 60.0493 65.2177 60.2666C65.2639 60.4209 65.2532 60.5788 65.1892 60.7355C65.1228 60.8934 65.0232 61.0477 64.8893 61.195C64.7529 61.3422 64.5917 61.4799 64.4044 61.6105C64.2159 61.7411 64.0227 61.8562 63.8235 61.9595C63.6232 62.0604 63.4252 62.1447 63.2272 62.2124C63.0292 62.2777 62.8573 62.3192 62.708 62.3335C62.4365 62.3679 62.2231 62.3465 62.069 62.2646C61.9137 62.1839 61.82 62.0949 61.788 61.9963C61.9113 61.9821 62.0773 61.9453 62.2871 61.8847C62.4969 61.8254 62.7234 61.7518 62.9664 61.6639C63.2082 61.5761 63.4489 61.4739 63.6884 61.3576C63.9266 61.2413 64.1353 61.119 64.3131 60.9884C64.4898 60.859 64.6249 60.726 64.7138 60.5883C64.8051 60.4518 64.8181 60.3129 64.7541 60.1728C64.702 60.06 64.5941 59.9828 64.4281 59.9413C64.2645 59.8985 64.063 59.8855 63.8235 59.8985C63.5852 59.9128 63.3126 59.9543 63.0091 60.0244C62.7056 60.0944 62.3867 60.1799 62.05 60.2832C61.7145 60.3841 61.3707 60.5016 61.0186 60.6298C60.6677 60.7604 60.3228 60.8993 59.9873 61.0477C59.4384 61.2864 58.9476 61.5523 58.5161 61.8432C58.0834 62.1352 57.717 62.4261 57.4218 62.7181C57.1243 63.0102 56.8979 63.2868 56.7426 63.5516C56.5873 63.8151 56.5055 64.0419 56.4948 64.2318C56.4853 64.4218 56.5529 64.5583 56.6975 64.6438C56.8433 64.7281 57.0745 64.7352 57.3898 64.6652C57.4491 64.5666 57.5285 64.423 57.6329 64.2378C57.736 64.0502 57.838 63.8555 57.9435 63.6513C58.0466 63.4471 58.1426 63.2453 58.2292 63.0458C58.3169 62.8452 58.3785 62.6778 58.4177 62.5436C58.4366 62.4522 58.4864 62.3976 58.567 62.381C58.6476 62.362 58.7283 62.3739 58.8089 62.4118C58.8895 62.451 58.9618 62.5092 59.0211 62.5864C59.0827 62.6635 59.1112 62.7549 59.1041 62.8606C59.0732 63.0992 58.9926 63.3426 58.867 63.5884C58.7413 63.8341 58.5943 64.087 58.4271 64.347C58.5765 64.2971 58.7223 64.2259 58.8717 64.1321C59.0211 64.0371 59.1645 63.9386 59.3032 63.8353C59.4419 63.7344 59.5747 63.6359 59.7004 63.5409C59.826 63.4471 59.9375 63.3711 60.0347 63.3153C60.0987 63.2797 60.1935 63.2654 60.3156 63.2726C60.4366 63.2797 60.548 63.3046 60.6488 63.3462C60.7483 63.3901 60.8171 63.4471 60.8539 63.5207C60.8894 63.5955 60.855 63.6845 60.7519 63.7902C60.5907 63.9374 60.4081 64.0704 60.2042 64.1843C60.0003 64.3007 59.7869 64.4004 59.564 64.4847C59.3412 64.569 59.1147 64.639 58.8812 64.696C58.6476 64.7518 58.4271 64.7946 58.2126 64.8219C58.1225 64.9691 58.017 65.1567 57.8937 65.381C57.7704 65.6054 57.6471 65.831 57.5202 66.0554C57.3946 66.2798 57.276 66.4852 57.1658 66.6727C57.0555 66.8603 56.9725 66.9838 56.9145 67.0467C56.7912 67.1749 56.6631 67.277 56.5268 67.3589C56.3917 67.4397 56.2684 67.4978 56.1581 67.5335C56.0479 67.5679 55.9649 67.5786 55.9068 67.5643C55.8475 67.5501 55.8357 67.5145 55.8677 67.4587C55.9246 67.3601 56.0194 67.1975 56.1474 66.9683C56.2778 66.7404 56.4118 66.4958 56.5505 66.2358C56.6892 65.9746 56.822 65.7277 56.9476 65.4926C57.0733 65.2564 57.1658 65.0819 57.2239 64.9703L57.2274 64.9691ZM63.4845 63.8828C63.6338 63.7843 63.7251 63.7569 63.7559 63.7985C63.7891 63.8412 63.7536 63.9172 63.6504 64.03C63.5402 64.1428 63.424 64.2568 63.3019 64.3731C63.1786 64.4895 63.0577 64.5975 62.938 64.7008C62.8194 64.8017 62.7008 64.8884 62.5847 64.9596C62.4685 65.0296 62.3618 65.0747 62.2646 65.0961C62.1804 65.1104 62.0844 65.1115 61.9741 65.1021C61.8639 65.0902 61.7608 65.0605 61.6635 65.0118C61.5663 64.962 61.4869 64.8931 61.4205 64.8064C61.3565 64.7186 61.3245 64.6046 61.3245 64.4633C61.3245 64.379 61.3838 64.2033 61.5035 63.9362C61.6232 63.6691 61.7809 63.3592 61.9777 63.0078C62.1745 62.6564 62.3974 62.2824 62.6463 61.8847C62.8953 61.4882 63.1537 61.113 63.4204 60.7616C63.6895 60.4102 63.9515 60.1039 64.2112 59.8439C64.4696 59.5839 64.7055 59.4153 64.9189 59.3382C64.9829 59.3097 65.073 59.299 65.1904 59.3061C65.3054 59.3132 65.4192 59.337 65.5282 59.375C65.6385 59.4141 65.7333 59.4699 65.8139 59.5435C65.8946 59.6183 65.9361 59.7038 65.9361 59.8024C65.9361 59.9151 65.8768 60.0695 65.7618 60.2654C65.6444 60.4624 65.4903 60.6833 65.2959 60.9243C65.1027 61.1676 64.8798 61.4276 64.6273 61.7055C64.376 61.9821 64.1116 62.2587 63.8342 62.5329C63.5556 62.8072 63.2782 63.0684 63.0008 63.3189C62.7222 63.5682 62.4637 63.7878 62.2243 63.9778C62.1531 64.0834 62.0962 64.1808 62.05 64.2722C62.0121 64.3494 61.9813 64.4253 61.9587 64.4978C61.9362 64.5726 61.9398 64.6224 61.973 64.6509C61.9919 64.6723 62.0702 64.6509 62.2053 64.588C62.3416 64.5251 62.491 64.4479 62.6558 64.3565C62.8194 64.2651 62.9818 64.1725 63.1407 64.0775C63.2995 63.9813 63.4133 63.9172 63.4833 63.8816L63.4845 63.8828ZM65.4417 59.857C65.4168 59.8214 65.3564 59.8427 65.2615 59.9199C65.1679 59.9971 65.0541 60.1122 64.9189 60.2666C64.7826 60.4209 64.6344 60.6025 64.4732 60.8103C64.3119 61.0169 64.1471 61.2306 63.9788 61.4478C63.5864 61.9678 63.1454 62.5686 62.6617 63.25C62.7459 63.18 62.8787 63.0565 63.0589 62.8808C63.2402 62.7051 63.4382 62.5009 63.6552 62.2646C63.8721 62.0296 64.0938 61.7838 64.3238 61.5274C64.5526 61.2709 64.7565 61.0287 64.9343 60.7996C65.1121 60.5717 65.2508 60.371 65.3504 60.2001C65.4512 60.0279 65.4808 59.914 65.4429 59.857H65.4417ZM66.2644 63.8317C66.3557 63.7474 66.4304 63.7308 66.4873 63.7831C66.5454 63.8353 66.53 63.9184 66.4387 64.0312C66.4126 64.0656 66.3415 64.1392 66.2265 64.2473C66.1103 64.3565 65.9633 64.5001 65.7855 64.6794C65.6065 64.8575 65.405 65.0664 65.175 65.3063C64.945 65.5449 64.7079 65.8061 64.4625 66.0874C64.172 66.4246 63.9338 66.7558 63.7464 67.0835C63.5591 67.4088 63.4038 67.7068 63.2806 67.9739C63.1573 68.241 63.0589 68.4642 62.9854 68.6423C62.9107 68.8228 62.8455 68.926 62.7862 68.9545C62.7293 68.983 62.6546 68.9985 62.5633 69.0008C62.4732 69.0044 62.3891 68.9949 62.312 68.97C62.2349 68.9462 62.1804 68.9071 62.1472 68.8536C62.114 68.8014 62.1318 68.7254 62.1958 68.6269C62.2409 68.5497 62.3393 68.3716 62.491 68.0891C62.6428 67.8077 62.8206 67.4777 63.028 67.0977C63.2331 66.7178 63.4596 66.3118 63.7002 65.8797C63.9432 65.4487 64.1756 65.0427 64.4032 64.664C64.2728 64.7969 64.1483 64.9168 64.025 65.0213C63.9018 65.127 63.8022 65.1792 63.7251 65.1792C63.6872 65.1792 63.635 65.1674 63.571 65.1424C63.5058 65.1175 63.4406 65.0866 63.3766 65.0474C63.3126 65.0095 63.2521 64.9632 63.1976 64.9109C63.1419 64.8575 63.1075 64.7993 63.0944 64.7364C63.0885 64.6806 63.1134 64.5832 63.1679 64.4467C63.2237 64.309 63.2936 64.1618 63.3801 64.0039C63.4679 63.8448 63.5615 63.6905 63.6611 63.5385C63.7607 63.3889 63.8531 63.2749 63.9373 63.1954C63.9753 63.1598 64.0298 63.1503 64.0974 63.1645C64.1649 63.1776 64.2337 63.2085 64.3001 63.2536C64.3688 63.2987 64.4305 63.3533 64.485 63.4162C64.5407 63.4791 64.5704 63.5349 64.5775 63.5848C64.5965 63.6347 64.5644 63.7225 64.4803 63.8484C64.3961 63.9754 64.3072 64.1001 64.2124 64.2223C64.1187 64.3458 64.044 64.4515 63.9847 64.5381C63.9266 64.626 63.9338 64.6568 64.0049 64.6284C64.0559 64.607 64.1223 64.5619 64.2041 64.4906C64.2847 64.4206 64.3712 64.3387 64.466 64.2437C64.5597 64.1499 64.6545 64.0478 64.7518 63.9433C64.8478 63.8377 64.9391 63.7439 65.022 63.6596C65.0754 63.6109 65.1157 63.5658 65.1441 63.5278C65.1738 63.4886 65.1987 63.4661 65.2165 63.459C65.2627 63.4518 65.3137 63.459 65.3718 63.4803C65.4287 63.5017 65.4844 63.529 65.5365 63.5646C65.5875 63.6002 65.629 63.643 65.6622 63.6964C65.693 63.7486 65.7108 63.8009 65.7108 63.8495C65.7108 63.9053 65.6717 63.9861 65.5934 64.0917C65.5164 64.1974 65.418 64.3292 65.2994 64.4883C65.1797 64.645 65.041 64.8326 64.8822 65.0463C64.7233 65.2611 64.5644 65.5057 64.4032 65.7799C64.4222 65.7586 64.4945 65.6743 64.6202 65.5271C64.7458 65.3787 64.9023 65.2053 65.0861 65.0035C65.2686 64.8041 65.4654 64.5975 65.6764 64.3874C65.8863 64.176 66.0819 63.9908 66.2621 63.8294L66.2644 63.8317ZM66.4968 65.1804C66.4589 65.1804 66.4091 65.1709 66.351 65.1495C66.2941 65.1282 66.2395 65.0997 66.1909 65.0652C66.1435 65.0296 66.1032 64.9893 66.0748 64.943C66.0463 64.8979 66.0345 64.8504 66.0404 64.8005C66.0475 64.7578 66.0653 64.7032 66.0949 64.6379C66.1234 64.5702 66.1577 64.5049 66.1969 64.4372C66.2348 64.3707 66.2775 64.3102 66.3273 64.2579C66.3759 64.2045 66.4233 64.1713 66.4683 64.157C66.5122 64.1499 66.5679 64.1618 66.6331 64.1891C66.6971 64.2176 66.7588 64.2544 66.8169 64.3007C66.8738 64.3458 66.9212 64.3933 66.9568 64.4432C66.9923 64.493 67.0066 64.5369 67.0006 64.5809C67.0006 64.6212 66.9805 64.6747 66.9425 64.7376C66.9046 64.8005 66.8584 64.8646 66.8062 64.9275C66.7552 64.9905 66.6995 65.0474 66.6414 65.0961C66.5833 65.146 66.5347 65.1733 66.4956 65.1804H66.4968ZM67.6017 65.1804C67.5637 65.1804 67.514 65.1709 67.4559 65.1495C67.3966 65.1282 67.3444 65.0997 67.2958 65.0652C67.2472 65.0296 67.2081 64.9893 67.1796 64.943C67.15 64.8979 67.1393 64.8504 67.1453 64.8005C67.1524 64.7578 67.1702 64.7032 67.1974 64.6379C67.2282 64.5702 67.2603 64.5049 67.3006 64.4372C67.3397 64.3707 67.3824 64.3102 67.431 64.2579C67.4796 64.2045 67.527 64.1713 67.5709 64.157C67.6171 64.1499 67.6704 64.1618 67.7368 64.1891C67.8008 64.2176 67.8625 64.2544 67.9194 64.3007C67.9775 64.3458 68.0249 64.3933 68.0605 64.4432C68.096 64.493 68.1102 64.5369 68.1031 64.5809C68.1031 64.6212 68.0842 64.6747 68.0462 64.7376C68.0059 64.8005 67.9621 64.8646 67.9099 64.9275C67.8589 64.9905 67.8032 65.0474 67.7439 65.0961C67.687 65.146 67.6384 65.1733 67.6005 65.1804H67.6017ZM68.7066 65.1804C68.6662 65.1804 68.6188 65.1709 68.5607 65.1495C68.5027 65.1282 68.4493 65.0997 68.4007 65.0652C68.3521 65.0296 68.313 64.9893 68.2845 64.943C68.2537 64.8979 68.243 64.8504 68.2501 64.8005C68.2561 64.7578 68.275 64.7032 68.3035 64.6379C68.3343 64.5702 68.3663 64.5049 68.4054 64.4372C68.4434 64.3707 68.4884 64.3102 68.5358 64.2579C68.5844 64.2045 68.6319 64.1713 68.6757 64.157C68.722 64.1499 68.7753 64.1618 68.8405 64.1891C68.9057 64.2176 68.9674 64.2544 69.0243 64.3007C69.0835 64.3458 69.1298 64.3933 69.1642 64.4432C69.1997 64.493 69.2151 64.5369 69.208 64.5809C69.208 64.6212 69.189 64.6747 69.1499 64.7376C69.1108 64.8005 69.0669 64.8646 69.0136 64.9275C68.9626 64.9905 68.9081 65.0474 68.8488 65.0961C68.7907 65.146 68.7433 65.1733 68.7054 65.1804H68.7066ZM12.3672 62.8725C12.3292 62.8725 12.2794 62.8618 12.2237 62.8404C12.1644 62.8191 12.1123 62.7906 12.0637 62.7561C12.0151 62.7205 11.976 62.6813 11.9475 62.635C11.9179 62.5899 11.906 62.5424 11.9131 62.4926C11.919 62.451 11.938 62.394 11.9653 62.324C11.9937 62.2539 12.0281 62.1851 12.0672 62.1174C12.1052 62.0521 12.1502 61.9928 12.1988 61.9429C12.2474 61.893 12.2925 61.8622 12.3387 61.8491C12.3849 61.842 12.4383 61.8503 12.5035 61.8764C12.5699 61.9002 12.6303 61.9346 12.6884 61.9821C12.7465 62.0272 12.7939 62.0759 12.8295 62.1293C12.8639 62.1815 12.8781 62.2266 12.8722 62.2611C12.8722 62.3038 12.852 62.356 12.8141 62.4237C12.7762 62.4902 12.7311 62.5555 12.6778 62.6196C12.6268 62.6825 12.5723 62.7383 12.5142 62.7882C12.4549 62.8369 12.4087 62.8654 12.3684 62.8725H12.3672ZM12.7359 63.9054C12.8651 63.7795 12.9623 63.7415 13.0263 63.7902C13.0927 63.8389 13.0666 63.9398 12.9492 64.0953C12.8722 64.201 12.7773 64.3114 12.6695 64.4277C12.5592 64.5429 12.4478 64.6521 12.3352 64.7542C12.2225 64.8563 12.117 64.9442 12.0186 65.0178C11.9226 65.0914 11.8491 65.1365 11.7958 65.1495C11.7258 65.1567 11.6428 65.1424 11.5504 65.1068C11.4567 65.0712 11.3666 65.0189 11.2789 64.9477C11.1912 64.8777 11.12 64.7922 11.0655 64.6889C11.0098 64.588 10.9884 64.4728 11.0027 64.3458C11.0157 64.2259 11.0453 64.0953 11.0939 63.9505C11.1426 63.8056 11.1983 63.675 11.2635 63.5563C11.3275 63.4376 11.3927 63.3379 11.4567 63.2595C11.5207 63.1823 11.58 63.1467 11.631 63.1538C11.676 63.1681 11.7246 63.1871 11.7768 63.2132C11.8278 63.237 11.8752 63.2654 11.9167 63.2975C11.9594 63.3284 11.9926 63.3664 12.0174 63.4067C12.0435 63.4506 12.053 63.4993 12.0483 63.5563C12.0412 63.6121 12.0127 63.694 11.9605 63.8032C11.9084 63.9113 11.8562 64.0229 11.8052 64.1345C11.7543 64.2473 11.708 64.3494 11.6689 64.4408C11.631 64.5322 11.625 64.588 11.6499 64.6094C11.6689 64.6236 11.7151 64.6153 11.7898 64.5832C11.8645 64.5524 11.9522 64.5049 12.0518 64.4408C12.1514 64.3779 12.2628 64.3007 12.3814 64.2093C12.4999 64.1179 12.6185 64.0158 12.7347 63.903L12.7359 63.9054ZM13.2587 63.1254C13.2966 63.0826 13.3488 63.0707 13.414 63.0886C13.478 63.1064 13.5432 63.1408 13.6072 63.1942C13.6712 63.2464 13.7281 63.3082 13.7767 63.3782C13.8253 63.4483 13.855 63.5124 13.868 63.5682C13.8751 63.618 13.8372 63.7011 13.7518 63.8211C13.6677 63.9398 13.5823 64.0668 13.4946 64.201C13.4068 64.3339 13.3452 64.4562 13.3096 64.5643C13.2741 64.6735 13.3084 64.7423 13.4128 64.7708C13.4566 64.7851 13.5372 64.7459 13.6499 64.6545C13.7625 64.5631 13.887 64.4503 14.0233 64.3173C13.9593 64.2259 13.9332 64.1262 13.9498 64.0169C13.9652 63.9077 14.0031 63.8092 14.0612 63.7225C14.1181 63.6335 14.1916 63.5599 14.2782 63.4958C14.3659 63.4328 14.4513 63.4008 14.5354 63.4008H14.5461C14.6433 63.4008 14.7121 63.4222 14.7547 63.4637C14.7962 63.5064 14.8188 63.5611 14.8223 63.6264C14.8259 63.694 14.8128 63.77 14.7844 63.8531C14.7559 63.9374 14.7121 64.0217 14.6528 64.106C14.763 64.1689 14.9006 64.1986 15.0642 64.1962C15.2301 64.1915 15.3854 64.1202 15.5336 63.9801C15.5716 63.9445 15.6142 63.9196 15.6557 63.9054C15.6972 63.8911 15.7304 63.8864 15.7565 63.8899C15.7826 63.8947 15.7968 63.9065 15.8004 63.9327C15.8027 63.9576 15.7814 63.9944 15.7375 64.0431C15.6332 64.1558 15.5253 64.2556 15.4127 64.3434C15.3001 64.4313 15.1815 64.499 15.0582 64.5488C14.9349 64.5987 14.8093 64.6248 14.6812 64.6284C14.5508 64.6319 14.4228 64.601 14.2936 64.5381C14.1181 64.7221 13.9379 64.8812 13.7506 65.0178C13.5633 65.1555 13.3914 65.2231 13.2373 65.2231C13.1923 65.2231 13.1389 65.2065 13.0773 65.1721C13.0156 65.1365 12.9552 65.0914 12.8971 65.0403C12.8402 64.9869 12.7868 64.9311 12.743 64.8717C12.6967 64.8112 12.6683 64.753 12.6552 64.6972C12.6173 64.5346 12.609 64.3767 12.6351 64.2223C12.66 64.068 12.7062 63.922 12.7714 63.7854C12.8354 63.6477 12.9113 63.5243 13.0002 63.4103C13.0856 63.2975 13.1721 63.2037 13.2563 63.1265L13.2587 63.1254ZM16.8519 62.8725C16.814 62.8725 16.7642 62.8618 16.7084 62.8404C16.6492 62.8191 16.597 62.7906 16.5484 62.7561C16.4998 62.7205 16.4607 62.6813 16.431 62.635C16.4026 62.5899 16.3919 62.5424 16.399 62.4926C16.405 62.451 16.4239 62.394 16.4512 62.324C16.4796 62.2539 16.514 62.1851 16.5531 62.1174C16.5911 62.0521 16.6361 61.9928 16.6847 61.9429C16.7333 61.893 16.7784 61.8622 16.8246 61.8491C16.8709 61.842 16.9242 61.8503 16.9894 61.8764C17.0534 61.9002 17.1151 61.9346 17.1743 61.9821C17.2324 62.0272 17.2787 62.0759 17.3142 62.1293C17.3498 62.1815 17.364 62.2266 17.3581 62.2611C17.3581 62.3038 17.3379 62.356 17.3 62.4237C17.2621 62.4902 17.2158 62.5555 17.1637 62.6196C17.1127 62.6825 17.0582 62.7383 17.0001 62.7882C16.9408 62.8369 16.8934 62.8654 16.8543 62.8725H16.8519ZM17.2206 63.9054C17.3498 63.7795 17.4458 63.7415 17.511 63.7902C17.575 63.8389 17.5501 63.9398 17.434 64.0953C17.3569 64.201 17.2621 64.3114 17.153 64.4277C17.0439 64.5429 16.9325 64.6521 16.8187 64.7542C16.7061 64.8563 16.6017 64.9442 16.5045 65.0178C16.4073 65.0914 16.3326 65.1365 16.2817 65.1495C16.2117 65.1567 16.1287 65.1424 16.0351 65.1068C15.9414 65.0712 15.8525 65.0189 15.7648 64.9477C15.6771 64.8777 15.6059 64.7922 15.5502 64.6889C15.4957 64.588 15.4743 64.4728 15.4874 64.3458C15.5004 64.2259 15.5312 64.0953 15.581 63.9505C15.6296 63.8056 15.6854 63.675 15.7494 63.5563C15.8146 63.4376 15.8798 63.3379 15.9438 63.2595C16.0078 63.1823 16.0671 63.1467 16.1181 63.1538C16.1631 63.1681 16.2117 63.1871 16.2639 63.2132C16.3149 63.237 16.3623 63.2654 16.4038 63.2975C16.4453 63.3284 16.4796 63.3664 16.5045 63.4067C16.5306 63.4506 16.5401 63.4993 16.533 63.5563C16.5271 63.6121 16.4986 63.694 16.4464 63.8032C16.3943 63.9113 16.3421 64.0229 16.2911 64.1345C16.2402 64.2473 16.1939 64.3494 16.1548 64.4408C16.1169 64.5322 16.111 64.588 16.1358 64.6094C16.1548 64.6236 16.2011 64.6153 16.2757 64.5832C16.3504 64.5524 16.4382 64.5049 16.5377 64.4408C16.6373 64.3779 16.7487 64.3007 16.8673 64.2093C16.987 64.1179 17.1044 64.0158 17.2218 63.903L17.2206 63.9054ZM17.4826 63.4423C17.5217 63.3996 17.5691 63.3853 17.6225 63.3948C17.6782 63.4067 17.7292 63.4305 17.7778 63.4696C17.8264 63.5076 17.869 63.5575 17.9082 63.6169C17.9461 63.6762 17.9698 63.7308 17.9769 63.7795C17.99 63.8294 17.9888 63.8911 17.971 63.9635C17.9556 64.0383 17.9331 64.1107 17.9034 64.1855C17.8738 64.2603 17.8465 64.3256 17.8204 64.3862C17.7955 64.4455 17.7789 64.4883 17.7718 64.5179C17.805 64.4954 17.8785 64.4242 17.9947 64.3019C18.1121 64.1784 18.233 64.0466 18.3634 63.9054C18.4926 63.7653 18.6135 63.6382 18.7262 63.5254C18.8388 63.4127 18.9123 63.3509 18.9443 63.3367C18.9692 63.3224 19.0142 63.3212 19.0806 63.3307C19.1446 63.3426 19.2086 63.3628 19.2739 63.3937C19.3379 63.4257 19.3971 63.4637 19.4481 63.51C19.4991 63.5551 19.5323 63.6074 19.5453 63.6632C19.5584 63.719 19.5335 63.8116 19.4718 63.9374C19.4102 64.0632 19.345 64.1962 19.2727 64.3316C19.2015 64.4693 19.1387 64.5916 19.0842 64.7008C19.0296 64.8088 19.0178 64.8753 19.0498 64.8955C19.083 64.9168 19.1541 64.8884 19.2632 64.8112C19.3734 64.734 19.4944 64.6379 19.6271 64.5263C19.7587 64.4135 19.882 64.2995 20.0006 64.1832C20.1167 64.068 20.1997 63.9849 20.2519 63.9362C20.3029 63.8864 20.3467 63.8602 20.3823 63.8555C20.4179 63.8531 20.4451 63.865 20.4653 63.8935C20.4854 63.922 20.4925 63.9564 20.4902 63.9991C20.4866 64.0407 20.4724 64.0858 20.4463 64.1357C20.4155 64.1855 20.3467 64.2722 20.2436 64.3945C20.1404 64.518 20.0266 64.6474 19.8998 64.7851C19.7741 64.9216 19.652 65.0474 19.537 65.159C19.4209 65.2718 19.3319 65.3395 19.2656 65.3597C19.1695 65.4024 19.0605 65.4155 18.9407 65.3965C18.8222 65.3799 18.706 65.3466 18.5981 65.3027C18.4879 65.2564 18.3954 65.1958 18.3207 65.1222C18.246 65.0474 18.2057 64.9738 18.201 64.8967C18.1939 64.8682 18.2057 64.8124 18.233 64.7281C18.2638 64.6438 18.2958 64.5583 18.3349 64.474C18.3752 64.3897 18.412 64.3126 18.4464 64.2425C18.4819 64.1725 18.5009 64.1345 18.5009 64.1274C18.5009 64.1274 18.4535 64.182 18.3598 64.29C18.2662 64.4004 18.1595 64.5179 18.0409 64.645C17.9212 64.7708 17.8027 64.886 17.6817 64.9916C17.562 65.0973 17.4766 65.1507 17.4245 65.1507C17.3403 65.1507 17.2526 65.1199 17.1625 65.0605C17.0724 65 17.0179 64.9109 16.9989 64.7922C16.9918 64.7423 17.0001 64.6557 17.0226 64.5334C17.0463 64.4099 17.0771 64.2805 17.1198 64.1428C17.1613 64.0063 17.2135 63.8721 17.2739 63.7427C17.3356 63.6121 17.4055 63.5124 17.4826 63.4423ZM22.9939 63.8329C23.039 63.7902 23.084 63.7664 23.1255 63.7641C23.167 63.7593 23.2002 63.77 23.2227 63.7902C23.2464 63.8116 23.2536 63.8424 23.2512 63.884C23.2488 63.9267 23.2239 63.9754 23.1789 64.0324C23.1528 64.0668 23.0828 64.1404 22.9655 64.2484C22.8493 64.3577 22.7011 64.5013 22.5197 64.6806C22.3395 64.8587 22.1356 65.0676 21.9092 65.3074C21.684 65.5461 21.448 65.8073 21.2015 66.0886C20.911 66.4258 20.6727 66.757 20.4854 67.0847C20.2981 67.41 20.1428 67.708 20.0195 67.9751C19.8962 68.2422 19.7978 68.4654 19.7243 68.6435C19.6497 68.8239 19.5844 68.9272 19.5252 68.9557C19.4683 68.9842 19.3924 68.9997 19.2976 69.002C19.2039 69.0056 19.1186 68.9961 19.0415 68.9712C18.9633 68.9474 18.9075 68.9082 18.872 68.8548C18.8364 68.8026 18.8471 68.7266 18.9063 68.6281C18.9502 68.5651 19.0368 68.4215 19.1612 68.1959C19.2869 67.9715 19.4398 67.702 19.6165 67.3851C19.7943 67.0693 19.9899 66.7167 20.2021 66.3308C20.4143 65.9438 20.6384 65.5544 20.8707 65.1602C20.7937 65.1745 20.7119 65.1733 20.6277 65.1555C20.5435 65.1365 20.4653 65.1056 20.3906 65.0605C20.3159 65.0142 20.2519 64.9537 20.1973 64.8765C20.1416 64.7993 20.1037 64.7079 20.0859 64.6011C20.0527 64.4693 20.0729 64.3209 20.1428 64.1582C20.2139 63.9968 20.3052 63.846 20.4202 63.7059C20.5328 63.5658 20.6502 63.4423 20.7735 63.3367C20.8968 63.231 20.9964 63.1705 21.0734 63.1562C21.1315 63.1491 21.1967 63.1586 21.2679 63.1823C21.3378 63.2073 21.4089 63.2417 21.4801 63.2821C21.5512 63.326 21.6152 63.3759 21.6685 63.4352C21.7243 63.4958 21.7669 63.5599 21.8001 63.6299C21.8962 63.4756 21.9697 63.3913 22.023 63.377C22.0609 63.3628 22.1107 63.3675 22.1724 63.3889C22.234 63.4079 22.2909 63.4388 22.3466 63.4768C22.4012 63.5159 22.4474 63.5611 22.4865 63.6145C22.5245 63.6667 22.5446 63.719 22.5446 63.7676C22.5375 63.8234 22.4937 63.9101 22.4083 64.0264C22.3241 64.1416 22.2139 64.2829 22.0787 64.4515C21.9424 64.62 21.793 64.8148 21.6294 65.0379C21.4646 65.2588 21.2975 65.5069 21.1303 65.7811C21.1493 65.7598 21.2216 65.6755 21.3485 65.5283C21.4741 65.3799 21.6294 65.2065 21.8144 65.0047C21.9993 64.8052 22.1937 64.5987 22.4047 64.3885C22.6146 64.1772 22.8102 63.992 22.9904 63.8306L22.9939 63.8329ZM21.5986 63.9172C21.6116 63.8887 21.6116 63.8567 21.5986 63.8222C21.5737 63.7522 21.531 63.7249 21.4729 63.7439C21.4149 63.7605 21.3496 63.8056 21.2797 63.8757C21.2086 63.9457 21.1363 64.0312 21.0651 64.1345C20.9952 64.2354 20.9324 64.3387 20.8766 64.4396C20.8221 64.5417 20.783 64.6343 20.7557 64.7186C20.7296 64.8029 20.7296 64.8599 20.7557 64.8872C20.7877 64.9228 20.847 64.9074 20.93 64.8397C21.0142 64.7732 21.1019 64.6948 21.192 64.6022L21.5986 63.9184V63.9172ZM31.6919 64.7174C31.8733 64.5215 32.076 64.2817 32.3024 64.0015C32.5289 63.7201 32.7612 63.415 33.0007 63.0897C33.239 62.7621 33.4772 62.4273 33.7167 62.083C33.955 61.7387 34.1838 61.4087 34.3996 61.0929C34.6165 60.7771 34.8109 60.4826 34.9852 60.2119C35.1595 59.9401 35.3029 59.7145 35.412 59.5317C35.4369 59.4889 35.4736 59.4616 35.5175 59.4474C35.5637 59.4331 35.604 59.4331 35.6396 59.4474C35.6752 59.4616 35.7012 59.4854 35.7166 59.5198C35.7321 59.5554 35.7309 59.5946 35.7119 59.6373C35.5127 60.0517 35.2922 60.4969 35.0528 60.9706C34.8145 61.4455 34.5572 61.9251 34.2822 62.4107C34.0083 62.895 33.7167 63.3711 33.4109 63.8377C33.1038 64.3054 32.7766 64.7411 32.4281 65.146C32.0796 65.5508 31.7097 65.9094 31.3173 66.2204C30.9273 66.5338 30.5183 66.7736 30.0927 66.9422C29.8982 67.0218 29.6932 67.0645 29.4727 67.074C29.2521 67.0859 29.0494 67.055 28.8621 66.9838C28.6748 66.9137 28.516 66.8009 28.3879 66.6466C28.2575 66.4923 28.1805 66.2857 28.1556 66.0257C27.9742 66.1943 27.7596 66.3557 27.5107 66.5113C27.2617 66.6656 27.0068 66.7736 26.7448 66.8366C26.4828 66.8995 26.228 66.8983 25.9743 66.8318C25.7229 66.7641 25.5072 66.5944 25.3258 66.3201C25.1835 66.1017 25.1006 65.8464 25.0745 65.5556C25.0496 65.2635 25.0721 64.9501 25.142 64.6165C25.2132 64.2829 25.3222 63.9421 25.4681 63.5943C25.6127 63.2464 25.787 62.9057 25.9909 62.5721C26.1936 62.2373 26.4153 61.9227 26.6535 61.6283C26.8918 61.3339 27.1396 61.0774 27.3945 60.8578C27.6494 60.6405 27.9054 60.4696 28.1591 60.3425C28.414 60.2167 28.657 60.1561 28.8906 60.1633C28.9155 60.1633 28.9558 60.174 29.0115 60.1953C29.066 60.2167 29.117 60.2428 29.1656 60.2737C29.2142 60.3057 29.251 60.3354 29.277 60.3639C29.3019 60.3924 29.3019 60.4138 29.277 60.4268C28.8183 60.6512 28.4152 60.9587 28.0667 61.3481C27.7181 61.7387 27.3874 62.1447 27.078 62.5662C26.995 62.679 26.8729 62.8582 26.7152 63.104C26.5563 63.3497 26.3999 63.6216 26.241 63.916C26.0821 64.2105 25.9375 64.5132 25.8047 64.8219C25.672 65.1305 25.5866 65.4083 25.5534 65.6494C25.5178 65.8927 25.5475 66.0839 25.6447 66.224C25.7419 66.3641 25.9351 66.4127 26.2268 66.3712C26.6192 66.3154 26.9819 66.1812 27.3103 65.9711C27.6399 65.7598 27.9505 65.5152 28.2409 65.2338C28.3701 64.7494 28.5646 64.2746 28.8218 63.8116C29.0791 63.3462 29.3541 62.9105 29.6445 62.5033C29.7477 62.3549 29.8733 62.1851 30.0215 61.9916C30.1709 61.7992 30.3333 61.6176 30.5123 61.449C30.689 61.2804 30.8739 61.1427 31.0636 61.0371C31.2533 60.9314 31.4429 60.8934 31.6302 60.9219C31.8294 60.9504 31.9231 61.0454 31.91 61.2116C31.897 61.3766 31.8164 61.582 31.6623 61.8277C31.5117 62.0735 31.3113 62.3477 31.0624 62.6505C30.8134 62.952 30.555 63.2571 30.2883 63.5622C30.0192 63.8685 29.7595 64.163 29.5082 64.4479C29.2569 64.7316 29.0565 64.9762 28.9084 65.1804C28.8692 65.2718 28.8289 65.3775 28.7874 65.4962C28.7459 65.6149 28.7104 65.7384 28.6807 65.8595C28.6523 65.983 28.6369 66.1052 28.6321 66.2287C28.6298 66.351 28.6511 66.4614 28.6962 66.5599C28.7471 66.7 28.8515 66.7558 29.0103 66.7285C29.1692 66.7 29.3517 66.6252 29.5616 66.5018C29.7714 66.3795 29.9931 66.224 30.2266 66.0388C30.4578 65.8512 30.6759 65.6684 30.8798 65.4855C31.0849 65.3027 31.2592 65.1389 31.4086 64.9952C31.5567 64.8504 31.6504 64.7578 31.6883 64.715L31.6919 64.7174ZM29.948 63.4732C30.1104 63.3272 30.2717 63.1598 30.4329 62.9734C30.5953 62.7882 30.7423 62.6077 30.8739 62.4356C31.0067 62.2634 31.1193 62.115 31.2141 61.9868C31.3066 61.861 31.3671 61.7826 31.3932 61.7553C31.2699 61.8467 31.143 61.9619 31.0102 62.0984C30.8786 62.2361 30.7482 62.3833 30.619 62.5424C30.4886 62.6991 30.3677 62.8594 30.2503 63.0209C30.1342 63.1823 30.0346 63.3331 29.9504 63.4732H29.948ZM35.3053 62.8737C35.2673 62.8737 35.2176 62.863 35.1595 62.8416C35.1026 62.8202 35.048 62.7917 34.9994 62.7573C34.952 62.7217 34.9117 62.6825 34.8832 62.6362C34.8548 62.5911 34.8429 62.5436 34.8489 62.4938C34.856 62.4522 34.8738 62.3952 34.9034 62.3252C34.9319 62.2551 34.9662 62.1863 35.0042 62.1186C35.0433 62.0533 35.0871 61.9939 35.1346 61.9441C35.1832 61.8942 35.2306 61.8633 35.2756 61.8503C35.3195 61.8432 35.3752 61.8515 35.4404 61.8776C35.5044 61.9013 35.5661 61.9358 35.6242 61.9833C35.6811 62.0284 35.7285 62.0771 35.7641 62.1305C35.7996 62.1827 35.8139 62.2278 35.8079 62.2623C35.8079 62.305 35.7878 62.3572 35.7498 62.4249C35.7107 62.4914 35.6657 62.5567 35.6135 62.6208C35.5625 62.6837 35.508 62.7395 35.4487 62.7894C35.3906 62.838 35.342 62.8665 35.3029 62.8737H35.3053ZM35.674 63.9065C35.8032 63.7807 35.8992 63.7427 35.9644 63.7914C36.0284 63.8401 36.0023 63.941 35.8874 64.0965C35.8103 64.2022 35.7166 64.3126 35.6064 64.4289C35.4961 64.5441 35.3847 64.6533 35.2721 64.7554C35.1595 64.8575 35.054 64.9453 34.9579 65.0189C34.8607 65.0926 34.786 65.1377 34.7351 65.1507C34.6639 65.1579 34.5821 65.1436 34.4873 65.108C34.3948 65.0724 34.3035 65.0201 34.2158 64.9489C34.1281 64.8789 34.0581 64.7934 34.0024 64.6901C33.9479 64.5892 33.9266 64.474 33.9396 64.347C33.9526 64.2271 33.9835 64.0965 34.0332 63.9516C34.0818 63.8068 34.1376 63.6762 34.2016 63.5575C34.2656 63.4388 34.332 63.339 34.396 63.2607C34.46 63.1835 34.5193 63.1479 34.5703 63.155C34.6141 63.1693 34.6639 63.1883 34.7149 63.2144C34.7682 63.2381 34.8133 63.2666 34.856 63.2987C34.8975 63.3296 34.9318 63.3675 34.9579 63.4079C34.9828 63.4518 34.9935 63.5005 34.9864 63.5575C34.9805 63.6133 34.952 63.6952 34.8987 63.8044C34.8477 63.9125 34.7955 64.0241 34.7445 64.1357C34.6936 64.2484 34.6473 64.3505 34.6094 64.442C34.5703 64.5334 34.5632 64.5892 34.5892 64.6105C34.6094 64.6248 34.6568 64.6165 34.7303 64.5844C34.805 64.5536 34.8915 64.5061 34.9923 64.442C35.0919 64.379 35.2021 64.3019 35.3207 64.2105C35.4404 64.119 35.5578 64.0169 35.6752 63.9042L35.674 63.9065Z" fill="#2B2A29"/>
<path d="M70.8855 10.2709V4.68032H73.0703C73.6192 4.68032 74.0187 4.73018 74.2677 4.8311C74.5166 4.93082 74.7158 5.11009 74.8652 5.36653C75.0145 5.62415 75.0892 5.91739 75.0892 6.24743C75.0892 6.66771 74.9766 7.01437 74.7514 7.28743C74.5249 7.56049 74.1882 7.73263 73.7378 7.80386C73.9618 7.94633 74.1456 8.10185 74.2902 8.27281C74.436 8.44258 74.6328 8.74651 74.8782 9.18103L75.5053 10.2721H74.2653L73.5208 9.05162C73.2541 8.61829 73.0715 8.34523 72.9719 8.23126C72.8735 8.11847 72.7692 8.04131 72.6601 7.99975C72.5487 7.9582 72.3744 7.93683 72.135 7.93683H71.9251V10.2721H70.8843L70.8855 10.2709ZM71.9263 7.04643H72.6933C73.1912 7.04643 73.5007 7.02268 73.6251 6.97757C73.7484 6.93245 73.8468 6.85291 73.9156 6.74013C73.9867 6.62734 74.0211 6.48725 74.0211 6.31985C74.0211 6.13109 73.9737 5.98031 73.8824 5.86278C73.7899 5.74762 73.6595 5.67401 73.4924 5.64433C73.407 5.63127 73.1557 5.62534 72.7348 5.62534H71.9251V7.04643H71.9263Z" fill="#2B2A29"/>
<defs>
<linearGradient id="paint0_linear_2_7" x1="31.2675" y1="53.2763" x2="31.2675" y2="32.1725" gradientUnits="userSpaceOnUse">
<stop stop-color="#B0CB1F"/>
<stop offset="1" stop-color="#5B6038"/>
</linearGradient>
<linearGradient id="paint1_linear_2_7" x1="19.3343" y1="28.7723" x2="33.8604" y2="36.1256" gradientUnits="userSpaceOnUse">
<stop stop-color="#F08143"/>
<stop offset="1" stop-color="#CA272A"/>
</linearGradient>
<linearGradient id="paint2_linear_2_7" x1="42.717" y1="54.9918" x2="42.717" y2="30.457" gradientUnits="userSpaceOnUse">
<stop stop-color="#393185"/>
<stop offset="1" stop-color="#E5097F"/>
</linearGradient>
<linearGradient id="paint3_linear_2_7" x1="51.4647" y1="28.1775" x2="43.3092" y2="36.722" gradientUnits="userSpaceOnUse">
<stop stop-color="#66C3D0"/>
<stop offset="1" stop-color="#57A7B3"/>
</linearGradient>
</defs>
</svg>
