<svg width="329" height="66" viewBox="0 0 329 66" fill="none" xmlns="http://www.w3.org/2000/svg">
<path d="M136.33 58.0929V45.9282H140.736C141.51 45.9282 142.102 45.9687 142.51 46.0441C143.084 46.1434 143.564 46.3327 143.954 46.6104C144.341 46.8899 144.654 47.2815 144.891 47.7835C145.127 48.2854 145.244 48.837 145.244 49.4401C145.244 50.4716 144.93 51.3468 144.295 52.0602C143.665 52.7773 142.523 53.1322 140.872 53.1322H137.88V58.0947H136.332L136.33 58.0929ZM137.879 51.7053H140.892C141.891 51.7053 142.597 51.5123 143.018 51.1243C143.437 50.7364 143.645 50.194 143.645 49.4879C143.645 48.9823 143.521 48.5447 143.275 48.1824C143.027 47.8202 142.701 47.5794 142.299 47.4635C142.039 47.3918 141.56 47.355 140.861 47.355H137.877V51.7035L137.879 51.7053ZM159.073 45.9282H160.621V52.9538C160.621 54.1765 160.489 55.1473 160.224 55.8663C159.957 56.5815 159.479 57.168 158.79 57.6185C158.097 58.069 157.194 58.2952 156.069 58.2952C154.98 58.2952 154.086 58.1003 153.393 57.7049C152.698 57.3115 152.204 56.7452 151.908 56.0005C151.612 55.2558 151.463 54.239 151.463 52.952V45.9264H153.011V52.9483C153.011 54.0037 153.105 54.7851 153.292 55.2852C153.48 55.7872 153.8 56.1733 154.259 56.4436C154.715 56.7157 155.274 56.8518 155.934 56.8518C157.063 56.8518 157.87 56.5815 158.352 56.0465C158.832 55.5096 159.073 54.4781 159.073 52.9483V45.9264V45.9282ZM167.66 58.0929V45.9282H172.037C172.927 45.9282 173.643 46.0496 174.183 46.296C174.72 46.5423 175.141 46.923 175.446 47.4341C175.753 47.9434 175.906 48.4785 175.906 49.0393C175.906 49.5578 175.77 50.0469 175.501 50.5065C175.233 50.9662 174.825 51.3358 174.279 51.6189C174.985 51.8341 175.529 52.2018 175.906 52.724C176.287 53.2425 176.476 53.8566 176.476 54.5645C176.476 55.1363 176.358 55.6658 176.128 56.1549C175.899 56.6459 175.612 57.021 175.272 57.2876C174.933 57.5505 174.507 57.7527 173.996 57.887C173.483 58.023 172.856 58.0911 172.111 58.0911H167.66V58.0929ZM169.206 51.0416H171.729C172.413 51.0416 172.903 50.9938 173.199 50.9C173.593 50.7787 173.891 50.5746 174.088 50.2914C174.286 50.0083 174.385 49.6552 174.385 49.2268C174.385 48.8223 174.293 48.4656 174.106 48.1585C173.92 47.8496 173.654 47.6382 173.31 47.5242C172.964 47.4102 172.372 47.355 171.535 47.355H169.202V51.0416H169.206ZM169.206 56.6643H172.111C172.611 56.6643 172.962 56.644 173.165 56.6054C173.518 56.5411 173.815 56.4289 174.054 56.2745C174.293 56.1182 174.488 55.892 174.643 55.596C174.797 55.2981 174.873 54.9561 174.873 54.5682C174.873 54.1122 174.762 53.7187 174.536 53.3822C174.314 53.0457 174.003 52.8104 173.608 52.6743C173.214 52.5383 172.644 52.4702 171.901 52.4702H169.202V56.6661L169.206 56.6643ZM183.053 58.0911V45.9264H184.601V56.6643H190.338V58.0911H183.053ZM196.363 58.0911V45.9264H197.911V58.0911H196.363ZM213.466 53.8235L215.015 54.2317C214.691 55.5537 214.11 56.5594 213.272 57.2526C212.431 57.9458 211.405 58.2952 210.192 58.2952C208.938 58.2952 207.915 58.0286 207.129 57.4935C206.34 56.9603 205.744 56.188 205.334 55.1768C204.922 54.1618 204.716 53.0788 204.716 51.9168C204.716 50.6518 204.948 49.5467 205.411 48.6035C205.876 47.6603 206.536 46.945 207.391 46.4541C208.246 45.965 209.19 45.7205 210.216 45.7205C211.383 45.7205 212.363 46.0294 213.158 46.649C213.954 47.2686 214.507 48.1383 214.82 49.2599L213.305 49.6332C213.036 48.7506 212.643 48.1034 212.128 47.7026C211.615 47.2962 210.97 47.0958 210.188 47.0958C209.294 47.0958 208.544 47.3201 207.945 47.7669C207.345 48.2137 206.921 48.8168 206.68 49.5706C206.435 50.3263 206.314 51.1059 206.314 51.9076C206.314 52.9409 206.457 53.8437 206.746 54.6141C207.033 55.3864 207.482 55.9619 208.09 56.3443C208.699 56.7268 209.355 56.9162 210.063 56.9162C210.927 56.9162 211.655 56.6551 212.253 56.1366C212.85 55.6162 213.255 54.8458 213.466 53.8198V53.8235ZM219.273 58.0911L223.748 45.9264H225.445L230.195 58.0911H228.439L227.089 54.4045H222.176L220.911 58.0911H219.273ZM222.63 53.0954H226.606L225.388 49.7233C225.022 48.6973 224.745 47.8515 224.552 47.184C224.39 47.9765 224.177 48.7561 223.908 49.5265L222.629 53.0972L222.63 53.0954ZM237.72 58.0911V47.3532H233.876V45.9264H243.115V47.3532H239.27V58.0911H237.722H237.72ZM249.203 58.0911V45.9264H250.749V58.0911H249.203ZM257.523 52.1705C257.523 50.1553 258.045 48.5741 259.084 47.4341C260.125 46.2923 261.465 45.7241 263.111 45.7241C264.188 45.7241 265.159 45.9926 266.025 46.5276C266.887 47.0627 267.549 47.811 268.001 48.769C268.456 49.7269 268.684 50.8136 268.684 52.029C268.684 53.2609 268.445 54.3659 267.967 55.3367C267.489 56.3112 266.812 57.0467 265.937 57.545C265.06 58.0469 264.115 58.2952 263.101 58.2952C262.002 58.2952 261.022 58.0175 260.154 57.4659C259.292 56.9125 258.633 56.1605 258.188 55.2025C257.744 54.2482 257.521 53.237 257.521 52.1705H257.523ZM259.119 52.1981C259.119 53.6617 259.496 54.8145 260.251 55.6567C261.005 56.4969 261.954 56.9198 263.094 56.9198C264.256 56.9198 265.209 56.4951 265.962 55.6456C266.713 54.7962 267.088 53.59 267.088 52.0271C267.088 51.0397 266.928 50.1756 266.606 49.4383C266.284 48.7028 265.815 48.131 265.199 47.7265C264.58 47.3201 263.888 47.1179 263.12 47.1179C262.028 47.1179 261.088 47.5095 260.299 48.2909C259.512 49.0724 259.119 50.3741 259.119 52.2018V52.1981ZM275.18 58.0911V45.9264H276.766L282.887 55.4746V45.9264H284.369V58.0911H282.783L276.662 48.5428V58.0911H275.18Z" fill="#FEFEFE"/>
<path fill-rule="evenodd" clip-rule="evenodd" d="M93.8938 37.0935H326.817V38.7244H93.8938V37.0935Z" fill="#FEFEFE"/>
<path d="M99.7757 34.4662V25.3152L92.1305 12.7239H97.0655L101.997 21.3326L106.798 12.7239H111.642L103.997 25.3446V34.4644H99.7757V34.4662ZM113.724 12.7258H117.947V24.5061C117.947 26.3797 118.001 27.5896 118.104 28.1394C118.284 29.0293 118.707 29.7482 119.376 30.2851C120.051 30.8275 120.968 31.0941 122.132 31.0941C123.313 31.0941 124.204 30.8422 124.806 30.3311C125.407 29.8199 125.767 29.1984 125.889 28.4538C126.008 27.7091 126.072 26.4809 126.072 24.7599V12.7239H130.296V24.1568C130.296 26.7677 130.184 28.6156 129.956 29.693C129.728 30.7705 129.31 31.6825 128.698 32.4253C128.091 33.1681 127.277 33.7565 126.256 34.1978C125.232 34.6391 123.903 34.8615 122.257 34.8615C120.271 34.8615 118.767 34.6244 117.743 34.1426C116.719 33.6627 115.908 33.0394 115.311 32.2709C114.713 31.5005 114.327 30.7006 114.136 29.8567C113.858 28.6119 113.724 26.7695 113.724 24.3351V12.7258ZM140.09 34.4662L132.629 12.7258H137.191L142.488 28.8197L147.57 12.7258H152.055L144.637 34.4662H140.09ZM170.805 34.4662H166.258L164.457 29.5165H156.094L154.36 34.4662H149.896L157.994 12.7258H162.454L170.807 34.4662H170.805ZM163.089 25.8429L160.191 17.7968L157.376 25.8429H163.089ZM180.063 12.7258H184.287V24.5061C184.287 26.3797 184.34 27.5896 184.443 28.1394C184.623 29.0293 185.044 29.7482 185.715 30.2851C186.39 30.8275 187.306 31.0941 188.471 31.0941C189.65 31.0941 190.544 30.8422 191.147 30.3311C191.748 29.8199 192.107 29.1984 192.228 28.4538C192.349 27.7091 192.414 26.4809 192.414 24.7599V12.7239H196.635V24.1568C196.635 26.7677 196.523 28.6156 196.295 29.693C196.067 30.7705 195.65 31.6825 195.037 32.4253C194.431 33.1681 193.614 33.7565 192.596 34.1978C191.571 34.6391 190.242 34.8615 188.597 34.8615C186.613 34.8615 185.107 34.6244 184.083 34.1426C183.058 33.6627 182.248 33.0394 181.65 32.2709C181.052 31.5005 180.664 30.7006 180.475 29.8567C180.199 28.6119 180.063 26.7695 180.063 24.3351V12.7258ZM201.094 34.4662V12.7258H207.846C210.403 12.7258 212.067 12.8324 212.845 13.0494C214.038 13.3785 215.038 14.0864 215.844 15.1804C216.649 16.2744 217.052 17.6865 217.052 19.4148C217.052 20.7516 216.818 21.8695 216.359 22.7815C215.892 23.6916 215.305 24.4068 214.592 24.9272C213.878 25.4439 213.15 25.7877 212.413 25.955C211.409 26.1628 209.956 26.2694 208.055 26.2694H205.317V34.4681H201.096L201.094 34.4662ZM205.316 16.3994V22.5939H207.612C209.267 22.5939 210.368 22.4781 210.927 22.2501C211.484 22.0221 211.922 21.6691 212.236 21.1781C212.553 20.6927 212.713 20.1301 212.713 19.4829C212.713 18.6886 212.49 18.0358 212.047 17.5192C211.602 17.0025 211.043 16.6789 210.357 16.5484C209.857 16.4527 208.853 16.4013 207.338 16.4013H205.314L205.316 16.3994ZM220.518 34.4662V12.7258H224.605L233.186 27.2954V12.7258H237.088V34.4662H232.87L224.419 20.1742V34.4662H220.518ZM241.403 34.4662V12.7258H245.627V34.4662H241.403ZM248.534 27.4223L252.639 26.9975C252.888 28.4299 253.382 29.4779 254.134 30.1509C254.886 30.8238 255.901 31.1585 257.177 31.1585C258.527 31.1585 259.545 30.8606 260.231 30.263C260.915 29.6655 261.259 28.9668 261.259 28.1669C261.259 27.6503 261.114 27.2163 260.829 26.8504C260.542 26.4919 260.036 26.1793 259.319 25.9146C258.83 25.7325 257.714 25.4181 255.966 24.9621C253.719 24.3756 252.141 23.6567 251.233 22.8017C249.957 21.6029 249.321 20.1411 249.321 18.4146C249.321 17.3059 249.622 16.2652 250.218 15.2981C250.819 14.3309 251.683 13.5973 252.814 13.0916C253.945 12.586 255.304 12.3323 256.905 12.3323C259.512 12.3323 261.478 12.9335 262.793 14.1434C264.113 15.3532 264.802 16.9621 264.87 18.9809L260.649 19.1335C260.468 18.0101 260.086 17.2048 259.498 16.7157C258.911 16.2229 258.029 15.9765 256.852 15.9765C255.638 15.9765 254.688 16.2395 254.004 16.7653C253.562 17.1036 253.34 17.5541 253.34 18.1223C253.34 18.6389 253.548 19.0784 253.965 19.4424C254.495 19.9131 255.78 20.4004 257.823 20.9042C259.867 21.4043 261.377 21.932 262.351 22.4671C263.333 23.0095 264.098 23.7431 264.653 24.679C265.207 25.6149 265.483 26.7695 265.483 28.1394C265.483 29.3841 265.152 30.5535 264.488 31.642C263.824 32.7305 262.886 33.5395 261.673 34.0672C260.459 34.5986 258.944 34.8615 257.133 34.8615C254.498 34.8615 252.474 34.229 251.06 32.9585C249.648 31.6917 248.809 29.8456 248.532 27.4204L248.534 27.4223ZM269.064 34.4662V12.7258H273.288V21.2885H281.501V12.7258H285.724V34.4662H281.501V24.9621H273.288V34.4662H269.064ZM308.881 34.4662H304.334L302.532 29.5165H294.17L292.436 34.4662H287.971L296.067 12.7258H300.528L308.881 34.4662ZM301.164 25.8429L298.266 17.7968L295.451 25.8429H301.164ZM311.128 12.7258H318.806C320.54 12.7258 321.86 12.8618 322.766 13.1413C323.984 13.5164 325.033 14.1838 325.901 15.1454C326.775 16.1016 327.435 17.2765 327.891 18.6683C328.341 20.0547 328.569 21.7702 328.569 23.8056C328.569 25.5983 328.356 27.1354 327.929 28.4317C327.411 30.0148 326.666 31.2964 325.701 32.2727C324.973 33.0155 323.987 33.5929 322.75 34.0066C321.823 34.3155 320.584 34.4681 319.032 34.4681H311.126V12.7276L311.128 12.7258ZM315.351 16.3994V30.7926H318.482C319.652 30.7926 320.496 30.7209 321.016 30.5848C321.7 30.4083 322.263 30.1049 322.709 29.6783C323.16 29.2536 323.526 28.5549 323.807 27.5841C324.092 26.6133 324.234 25.2802 324.234 23.6015C324.234 21.921 324.092 20.6357 323.807 19.7348C323.526 18.8338 323.127 18.1351 322.618 17.6295C322.108 17.1275 321.463 16.7855 320.676 16.6072C320.093 16.4711 318.944 16.3994 317.236 16.3994H315.351Z" fill="#FEFEFE"/>
<path d="M2.7525 55.0076L2.18802 53.1929L3.49164 51.5215L1.5261 51.0582L0.965304 49.2544L4.42753 50.2675L6.4611 49.5173L6.97041 51.1574L4.935 51.9058L2.7525 55.0058V55.0076ZM0.305221 43.9921L0.104804 42.284L3.13494 41.8648C3.43281 41.8225 3.72332 41.8354 4.00279 41.9016C4.28227 41.9659 4.53417 42.0946 4.75849 42.284C4.98648 42.4734 5.15013 42.683 5.26045 42.9091C5.41122 43.2272 5.51418 43.617 5.56934 44.0841C5.6006 44.3525 5.61715 44.6485 5.62083 44.9721C5.62267 45.2957 5.58589 45.5715 5.50867 45.7977C5.43144 46.0275 5.30825 46.2427 5.1391 46.4449C4.96994 46.649 4.78975 46.7961 4.59485 46.8899C4.28411 47.0388 4.0028 47.1344 3.75457 47.1675L0.724438 47.5867L0.524023 45.8786L3.62771 45.4484C3.90351 45.4097 4.10944 45.2957 4.2455 45.1082C4.3834 44.9188 4.43304 44.6761 4.39995 44.3783C4.36501 44.0859 4.26205 43.8671 4.08737 43.72C3.91638 43.5747 3.68838 43.5214 3.40706 43.56L0.303382 43.9884L0.305221 43.9921ZM0 40.5409L0.126869 38.7446L3.89431 37.7958L0.301544 36.255L0.422896 34.5101L5.39283 36.9996L5.26229 38.8622L0.00183907 40.5428L0 40.5409ZM5.4057 31.2685L5.00303 33.1734L5.76792 33.6533L5.40387 35.3687L0.840274 32.0665L1.23007 30.2278L6.65784 29.4445L6.28459 31.2041L5.40387 31.2685H5.4057ZM4.24918 31.3531L2.32776 31.4947L3.99728 32.5427L4.24918 31.3531ZM4.68494 20.6722L5.4057 19.1388L8.1251 20.6557C8.39539 20.8046 8.62706 20.9921 8.8238 21.2183C9.02238 21.4426 9.16395 21.7037 9.25037 21.9979C9.33679 22.2939 9.36805 22.5679 9.33863 22.8235C9.30002 23.1783 9.18234 23.5645 8.9856 23.9818C8.8716 24.2227 8.73187 24.4783 8.56638 24.7467C8.4009 25.0152 8.22807 25.2193 8.04604 25.3608C7.86217 25.5024 7.65073 25.6035 7.40618 25.6679C7.1598 25.7322 6.93364 25.7433 6.72403 25.7028C6.39123 25.6366 6.11175 25.5392 5.88743 25.416L3.16987 23.9009L3.89063 22.3675L6.67439 23.9193C6.92261 24.0572 7.15428 24.0903 7.36205 24.0186C7.57166 23.9451 7.74082 23.7777 7.86401 23.5111C7.9872 23.2482 8.01662 23.0037 7.94859 22.7775C7.8824 22.5513 7.72243 22.3675 7.4687 22.2259L4.68494 20.6741V20.6722ZM6.58981 17.2964L8.21704 15.0404C8.57374 14.5494 8.94515 14.2718 9.33679 14.2111C9.72659 14.1504 10.1219 14.2902 10.5191 14.6303C10.9272 14.9778 11.1497 15.386 11.1847 15.8475C11.2214 16.3109 11.0412 16.8165 10.6478 17.3644L10.1109 18.1073L11.602 19.3851L10.6202 20.7458L6.58797 17.2964H6.58981ZM9.29634 17.4104L9.5372 17.0776C9.72659 16.8128 9.81852 16.5922 9.81117 16.4157C9.80197 16.2373 9.73394 16.0939 9.60524 15.9818C9.47837 15.8733 9.33863 15.8273 9.18234 15.8457C9.02605 15.8622 8.85873 15.9983 8.67303 16.2539L8.39355 16.6418L9.2945 17.4122L9.29634 17.4104ZM10.4473 12.0654L11.5653 11.01L14.873 11.9698L13.0178 9.64017L14.1504 8.57374L17.5079 12.7935L16.3771 13.8599L13.0877 12.9057L14.9319 15.2224L13.8066 16.2833L10.4473 12.0635V12.0654ZM15.4394 7.53857L16.7356 6.53465L19.7088 11.0835L18.4143 12.0874L15.4412 7.53857H15.4394ZM19.6683 8.89551L20.9627 8.05891C21.1025 8.27955 21.2477 8.42665 21.393 8.49835C21.6338 8.61787 21.8876 8.60316 22.1579 8.45239C22.3583 8.34023 22.4907 8.20233 22.5495 8.04052C22.612 7.87688 22.6102 7.72611 22.5458 7.59189C22.487 7.46318 22.3803 7.37676 22.2296 7.3308C22.0788 7.28667 21.7956 7.32528 21.3728 7.44479C20.6851 7.63786 20.15 7.68382 19.7676 7.57902C19.3851 7.47605 19.102 7.23151 18.92 6.84355C18.8004 6.58981 18.7563 6.31033 18.7857 6.00879C18.8133 5.70541 18.9347 5.41306 19.1461 5.13174C19.3594 4.85042 19.7014 4.57646 20.1776 4.31169C20.7623 3.98625 21.2606 3.85754 21.678 3.92373C22.0954 3.98992 22.4539 4.26389 22.7554 4.74562L21.4684 5.57118C21.3268 5.36525 21.1742 5.24206 21.0161 5.20345C20.8542 5.163 20.6741 5.19977 20.4736 5.31009C20.31 5.40203 20.2052 5.50867 20.1574 5.63186C20.1096 5.75321 20.1114 5.86905 20.1629 5.97753C20.2015 6.0566 20.2677 6.10808 20.3633 6.13566C20.4589 6.16508 20.6465 6.1375 20.9204 6.05476C21.6063 5.85618 22.1156 5.75689 22.4502 5.75689C22.7867 5.75689 23.0662 5.83044 23.2923 5.98305C23.5148 6.13566 23.6913 6.34527 23.82 6.61739C23.969 6.93548 24.026 7.2738 23.9929 7.63418C23.9561 7.99272 23.8274 8.32184 23.6012 8.62339C23.3769 8.92309 23.0441 9.19705 22.6028 9.44343C21.8269 9.87552 21.2128 10.0134 20.7623 9.85346C20.31 9.69533 19.9478 9.37724 19.672 8.89735L19.6683 8.89551ZM23.9248 2.48589L25.4473 2.01703L25.9382 3.89064L27.604 3.37581L27.1149 1.50036L28.6466 1.02782L30.0458 6.39675L28.516 6.86929L27.9497 4.69598L26.282 5.21264L26.8502 7.38596L25.3277 7.85666L23.9267 2.48589H23.9248ZM34.1092 4.88168L32.3276 5.12806L32.1786 6.07498L30.5735 6.29562L31.8422 0.494604L33.5632 0.255576L36.1152 5.5289L34.4696 5.75689L34.1092 4.87984V4.88168ZM33.6349 3.72883L32.8479 1.81661L32.5225 3.88512L33.6349 3.73067V3.72883ZM36.9978 0L39.3458 0.193061C39.8091 0.231674 40.1787 0.330961 40.4508 0.490926C40.7266 0.652729 40.9491 0.866017 41.1164 1.1363C41.2838 1.40843 41.3996 1.71732 41.4566 2.06299C41.5191 2.40866 41.5357 2.77088 41.5081 3.15149C41.4658 3.74722 41.372 4.20137 41.2249 4.51946C41.0778 4.83755 40.8866 5.09681 40.6494 5.3009C40.4122 5.50315 40.164 5.63186 39.9066 5.68702C39.5517 5.75873 39.2355 5.78263 38.9523 5.76057L36.6043 5.56567L36.9941 0.00184047L36.9978 0ZM38.4871 1.39004L38.2757 4.42753L38.6636 4.45879C38.9946 4.48637 39.2336 4.4643 39.3789 4.39995C39.5223 4.33008 39.6418 4.19953 39.7356 4.01015C39.8294 3.81709 39.8919 3.499 39.9213 3.0522C39.9636 2.46382 39.9029 2.0538 39.7411 1.82029C39.5793 1.58862 39.2925 1.45439 38.8824 1.42129L38.4871 1.3882V1.39004ZM46.1562 1.34775L48.6513 2.26709C49.1956 2.4675 49.5596 2.75801 49.7417 3.13862C49.9237 3.52106 49.9366 3.97154 49.7729 4.49188C49.6074 5.02694 49.3298 5.39099 48.9418 5.58222C48.5539 5.77528 48.0556 5.75873 47.4488 5.53625L46.6269 5.23287L46.0183 7.18922L44.5125 6.63394L46.1562 1.34591V1.34775ZM46.9579 4.16276L47.3275 4.29882C47.618 4.40547 47.8405 4.42753 47.9912 4.3595C48.142 4.29331 48.245 4.17563 48.2983 4.00463C48.3516 3.83731 48.3424 3.67919 48.2762 3.52474C48.21 3.37213 48.0372 3.24342 47.7541 3.13862L47.3238 2.98049L46.9561 4.16276H46.9579ZM54.6803 5.11887L56.0888 5.90398L54.6969 8.86425C54.5608 9.1566 54.388 9.41034 54.1802 9.62362C53.9743 9.83691 53.7353 9.99136 53.4631 10.087C53.1929 10.1826 52.9391 10.2138 52.7056 10.1844C52.3783 10.1421 52.0235 10.0134 51.641 9.7983C51.4185 9.67511 51.185 9.5225 50.9368 9.34231C50.6904 9.16212 50.501 8.97273 50.3723 8.77416C50.2436 8.57558 50.1498 8.34207 50.091 8.07546C50.0322 7.80885 50.0211 7.56247 50.0597 7.33447C50.1204 6.97042 50.2087 6.66704 50.3245 6.42249L51.7164 3.46222L53.1248 4.24734L51.6999 7.27747C51.573 7.54776 51.5417 7.79782 51.6079 8.02582C51.6741 8.25381 51.8304 8.43768 52.0731 8.57374C52.3158 8.70796 52.5383 8.73922 52.7479 8.66567C52.9557 8.59397 53.1248 8.41929 53.2554 8.14349L54.6803 5.11335V5.11887ZM57.8134 7.17819L60.1467 9.17499C60.5347 9.50779 60.7572 9.86817 60.8142 10.2561C60.8712 10.6441 60.7884 10.9916 60.5641 11.3005C60.3784 11.5616 60.1412 11.7197 59.8599 11.7767C59.6723 11.8172 59.4554 11.7896 59.2127 11.6995C59.448 12.0231 59.5657 12.3338 59.5712 12.6372C59.5749 12.9369 59.4738 13.2293 59.2733 13.5069C59.1097 13.7349 58.913 13.8985 58.6831 13.996C58.4551 14.0934 58.2179 14.1229 57.9734 14.0861C57.8226 14.0603 57.6296 13.9739 57.3961 13.8232C57.089 13.6227 56.8868 13.483 56.7967 13.4058L54.6454 11.5653L57.8134 7.17635V7.17819ZM57.8263 9.97481L58.3687 10.44C58.5636 10.6055 58.7254 10.6864 58.8541 10.6772C58.9828 10.6698 59.0987 10.5963 59.198 10.4602C59.2881 10.3334 59.323 10.1991 59.2991 10.0631C59.2752 9.927 59.1685 9.77623 58.9792 9.61443L58.4257 9.14189L57.8245 9.97481H57.8263ZM56.5815 11.6976L57.2177 12.2419C57.431 12.4258 57.613 12.514 57.7601 12.5067C57.9072 12.4993 58.0341 12.4258 58.1334 12.286C58.2271 12.1555 58.2584 12.0157 58.229 11.8613C58.1996 11.7087 58.0745 11.5377 57.8539 11.352L57.2214 10.8096L56.5797 11.6995L56.5815 11.6976ZM62.8698 11.7271L63.9068 13.0307L60.9833 15.7869L62.605 17.8259L61.6526 18.7232L58.9939 15.3842L62.8698 11.7289V11.7271ZM66.2291 16.2134L67.1502 17.6237L62.9709 20.8579L62.0497 19.4477L66.2272 16.2116L66.2291 16.2134ZM67.1576 24.1197L67.4187 25.6734C67.0307 25.7745 66.674 25.7966 66.3504 25.7286C66.025 25.6661 65.7381 25.5208 65.4844 25.2983C65.2307 25.0777 64.999 24.743 64.7894 24.2981C64.5356 23.7575 64.4014 23.2776 64.3812 22.8529C64.3665 22.43 64.4805 21.9942 64.7269 21.5419C64.9714 21.0914 65.3777 20.7072 65.9441 20.3909C66.6979 19.9717 67.3819 19.8669 67.9923 20.0765C68.6028 20.2898 69.0974 20.7936 69.4743 21.5952C69.7685 22.2204 69.8843 22.7775 69.82 23.2666C69.7556 23.7538 69.5258 24.2209 69.125 24.6621L68.2111 23.4633C68.327 23.3401 68.4042 23.2335 68.4447 23.1452C68.5108 22.9981 68.5439 22.8474 68.5439 22.6911C68.5439 22.5348 68.5072 22.3785 68.4336 22.2241C68.27 21.8766 68.0162 21.6798 67.6724 21.6375C67.4168 21.6044 67.084 21.7 66.6758 21.928C66.1702 22.2094 65.8632 22.4852 65.7547 22.7573C65.648 23.0294 65.6646 23.3162 65.808 23.6196C65.9459 23.9138 66.1242 24.0958 66.3486 24.1602C66.5692 24.2264 66.8413 24.2117 67.1613 24.1216L67.1576 24.1197ZM67.9629 30.2205L67.3874 28.3689L66.5067 28.3983L65.9882 26.7306L71.4638 26.9311L72.0209 28.7201L67.7791 32.4894L67.2458 30.7776L67.9648 30.2186L67.9629 30.2205ZM68.908 29.4868L70.4746 28.2678L68.5476 28.3321L68.908 29.4887V29.4868ZM72.6313 31.2189L73.4771 36.3837L72.2305 36.6264L71.9455 34.8907L68.1468 35.6298L67.8673 33.9346L71.6678 33.1954L71.3829 31.4616L72.6313 31.2189ZM73.4275 38.0569L73.4679 39.7852L68.3417 39.9268L68.3012 38.1966L73.4275 38.0569ZM71.0648 41.2985C71.894 41.4125 72.5136 41.7545 72.9145 42.3208C73.3208 42.8889 73.4679 43.6226 73.3631 44.5217C73.2565 45.4428 72.9457 46.1213 72.4346 46.5589C71.9216 46.9947 71.256 47.1565 70.4378 47.0425C69.842 46.9597 69.3677 46.7851 69.0128 46.5148C68.6598 46.2445 68.4005 45.8878 68.2369 45.4465C68.0732 45.0034 68.0273 44.4775 68.099 43.8634C68.1725 43.2401 68.3233 42.7363 68.5513 42.352C68.7848 41.9678 69.1103 41.6754 69.535 41.4768C69.9616 41.2764 70.469 41.2194 71.0648 41.3003V41.2985ZM70.8607 43.0066C70.3477 42.9349 69.9671 42.99 69.7189 43.1647C69.4706 43.3431 69.3254 43.6115 69.2831 43.9682C69.2408 44.336 69.3162 44.6375 69.5129 44.8692C69.7097 45.1027 70.0903 45.2571 70.6603 45.3344C71.1383 45.4024 71.4987 45.3436 71.7432 45.1634C71.9878 44.9832 72.133 44.7129 72.1753 44.3507C72.2158 44.0068 72.1349 43.7127 71.9363 43.4736C71.7377 43.2309 71.3773 43.0765 70.8607 43.0048V43.0066ZM72.5854 49.157L72.1827 50.7051L68.9337 51.8782L71.6568 52.7203L71.2486 54.2869L66.3155 52.7608L66.7255 51.1942L69.956 50.0285L67.2458 49.1919L67.654 47.6327L72.5872 49.1588L72.5854 49.157Z" fill="#FEFEFE"/>
<path d="M69.8108 2.61304C72.2397 2.61304 74.2107 4.665 74.2107 7.19869C74.2107 9.73055 72.2397 11.7843 69.8108 11.7843C67.3801 11.7843 65.4108 9.73055 65.4108 7.19869C65.4108 4.665 67.3819 2.61304 69.8108 2.61304Z" stroke="#FEFEFE" stroke-width="0.377985" stroke-miterlimit="22.9256"/>
<path fill-rule="evenodd" clip-rule="evenodd" d="M35.4404 12.9739C39.2336 12.9739 42.3116 16.3166 42.3116 20.4407C42.3116 24.5649 39.2336 27.9076 35.4404 27.9076C31.6454 27.9076 28.5693 24.5649 28.5693 20.4407C28.5693 16.3184 31.6454 12.9739 35.4404 12.9739Z" fill="#D9DADA"/>
<path fill-rule="evenodd" clip-rule="evenodd" d="M25.9382 29.1304L25.6661 42.7016C25.6808 48.0632 29.1191 52.522 34.249 52.6029L34.2361 39.5226C34.2324 35.3193 32.5997 32.1771 28.9959 30.5278L25.9382 29.1304Z" fill="url(#paint0_linear_62_120)"/>
<path fill-rule="evenodd" clip-rule="evenodd" d="M34.249 39.6161L22.5624 34.8227C17.9914 32.8075 15.4688 27.6757 17.313 22.4741L28.4737 27.3705C32.0591 28.9426 34.1332 31.7631 34.1957 36.0123L34.2472 39.6161H34.249Z" fill="url(#paint1_linear_62_120)"/>
<path fill-rule="evenodd" clip-rule="evenodd" d="M44.9409 29.1304L45.213 42.7016C45.1983 48.0632 41.76 52.522 36.6301 52.6029L36.6429 39.5226C36.6466 35.3193 38.2794 32.1771 41.8832 30.5278L44.9409 29.1304Z" fill="url(#paint2_linear_62_120)"/>
<path fill-rule="evenodd" clip-rule="evenodd" d="M36.6301 39.6161L48.3167 34.8227C52.8876 32.8075 55.4103 27.6757 53.5661 22.4741L42.4053 27.3705C38.8181 28.9426 36.7459 31.7631 36.6834 36.0123L36.6319 39.6161H36.6301Z" fill="url(#paint3_linear_62_120)"/>
<path fill-rule="evenodd" clip-rule="evenodd" d="M35.4404 16.4304C38.3566 16.4304 40.7193 18.999 40.7193 22.1689C40.7193 25.337 38.3547 27.9074 35.4404 27.9074C32.5243 27.9074 30.1598 25.3388 30.1598 22.1689C30.1598 19.0009 32.5243 16.4304 35.4404 16.4304Z" fill="#5B5B5B"/>
<path d="M4.83204 62.9911C4.62795 62.5333 4.57279 62.081 4.66472 61.6286C4.75849 61.1782 4.95523 60.7498 5.25493 60.3434C5.55464 59.9371 5.93524 59.5565 6.39491 59.2034C6.85642 58.8504 7.35102 58.5397 7.87688 58.2712C8.40274 58.0009 8.93964 57.784 9.49124 57.6148C10.0428 57.4475 10.5595 57.3464 11.0412 57.3133C11.523 57.2802 11.9495 57.3151 12.3173 57.4236C12.685 57.5321 12.9498 57.7307 13.1116 58.0193C13.1612 58.1131 13.1741 58.2069 13.1484 58.3025C13.1245 58.3963 13.073 58.49 12.9994 58.5801C12.9259 58.6721 12.8321 58.7566 12.7218 58.832C12.6096 58.9092 12.4938 58.9791 12.3743 59.0398C12.2529 59.1005 12.1371 59.1464 12.0213 59.1814C11.9054 59.2145 11.8098 59.231 11.7289 59.231C11.5928 59.231 11.4825 59.2089 11.3943 59.1611C11.3079 59.1152 11.2435 59.0637 11.1994 59.0085C11.1552 58.9552 11.1332 58.9037 11.1295 58.8522C11.1277 58.8026 11.1405 58.7695 11.1718 58.7566C11.2711 58.7291 11.4145 58.6904 11.6039 58.639C11.7933 58.5893 11.9753 58.5268 12.1555 58.4533C12.3338 58.3797 12.4828 58.2933 12.5968 58.1958C12.7108 58.0984 12.7402 57.9826 12.685 57.8483C12.6409 57.7546 12.5324 57.6957 12.3596 57.6718C12.1867 57.6479 11.9918 57.6479 11.7749 57.6718C11.5579 57.6957 11.3373 57.7343 11.113 57.7877C10.885 57.841 10.6974 57.8943 10.543 57.9495C10.1642 58.0763 9.75233 58.2436 9.30369 58.4496C8.8569 58.6537 8.41194 58.8872 7.9725 59.1501C7.53305 59.413 7.11383 59.6962 6.71484 59.9977C6.31585 60.2993 5.9757 60.6137 5.69438 60.9355C5.41306 61.2572 5.20897 61.5827 5.0821 61.9081C4.95523 62.2336 4.94236 62.5517 5.03981 62.8606C5.09497 63.0279 5.19242 63.1566 5.33216 63.243C5.4719 63.3313 5.6337 63.3883 5.82308 63.4158C6.01247 63.4434 6.2184 63.4434 6.44088 63.4158C6.66336 63.3883 6.88216 63.3386 7.09545 63.2687C7.30873 63.197 7.51099 63.1106 7.70221 63.0077C7.89343 62.9028 8.05707 62.7907 8.19314 62.6693C8.30529 62.4671 8.42481 62.2667 8.54984 62.0699C8.67671 61.8713 8.80541 61.6875 8.93596 61.5202C9.0665 61.3528 9.19705 61.1984 9.32392 61.0605C9.45447 60.9244 9.57766 60.8141 9.69533 60.7332C9.75785 60.6872 9.82772 60.6578 9.90862 60.6468C9.98768 60.6358 10.0594 60.6394 10.1201 60.656C10.1826 60.6725 10.2304 60.6983 10.2653 60.7314C10.2984 60.7645 10.3058 60.7939 10.2892 60.8215C10.0171 61.2241 9.76336 61.6103 9.53169 61.9762C9.29818 62.342 9.08306 62.7116 8.8808 63.0849C8.68039 63.4563 8.491 63.8442 8.31081 64.2451C8.13062 64.6441 7.95595 65.0798 7.78311 65.5524C7.76473 65.5983 7.73347 65.6131 7.69118 65.5928C7.64889 65.5726 7.60476 65.5303 7.56063 65.466C7.51834 65.4016 7.48157 65.3189 7.45031 65.2177C7.41905 65.1166 7.40618 65.0044 7.41354 64.8849C7.43192 64.4142 7.54592 63.9582 7.75737 63.5133C7.52202 63.6346 7.25909 63.7211 6.96858 63.7762C6.67623 63.8295 6.39124 63.8387 6.10808 63.8056C5.82676 63.7725 5.57119 63.688 5.34319 63.5537C5.11519 63.4195 4.9442 63.232 4.83204 62.9893V62.9911ZM39.7043 61.055C39.7485 61.0145 39.7889 60.9925 39.8294 60.9888C39.8698 60.9851 39.9011 60.9943 39.9231 61.0145C39.9434 61.0348 39.9526 61.0642 39.9507 61.1046C39.9489 61.1451 39.925 61.1929 39.8809 61.2462C39.8569 61.2793 39.7889 61.3492 39.6768 61.454C39.5664 61.5588 39.423 61.6948 39.2502 61.8677C39.0773 62.0387 38.8825 62.2391 38.6655 62.4671C38.4485 62.6951 38.2224 62.9451 37.987 63.2136C37.7094 63.5353 37.4795 63.8534 37.2994 64.166C37.1192 64.4767 36.9721 64.7636 36.8544 65.0173C36.7367 65.2729 36.6429 65.4862 36.5712 65.6572C36.4995 65.83 36.437 65.9275 36.3819 65.955C36.3267 65.9826 36.2531 65.9973 36.1649 65.9992C36.0748 66.0028 35.9921 65.9937 35.9185 65.9698C35.845 65.9477 35.7898 65.9091 35.7567 65.8576C35.7218 65.808 35.7328 65.7344 35.788 65.6406C35.8321 65.58 35.913 65.4439 36.0343 65.2269C36.1539 65.0118 36.2991 64.7544 36.4701 64.451C36.6393 64.1495 36.8268 63.8111 37.0309 63.4416C37.235 63.072 37.4483 62.6988 37.6726 62.3218C37.5972 62.3347 37.52 62.3329 37.4391 62.3181C37.3582 62.2998 37.2828 62.2703 37.2111 62.2262C37.1394 62.1821 37.0787 62.1233 37.0254 62.0497C36.9739 61.9762 36.9371 61.8879 36.9187 61.7868L36.9151 61.7702L36.7386 61.9651C36.619 62.0957 36.5014 62.2152 36.391 62.3237C36.2807 62.4303 36.1925 62.4965 36.13 62.5149C36.038 62.5553 35.9351 62.5682 35.8192 62.5498C35.7034 62.5333 35.5949 62.502 35.4901 62.4597C35.3853 62.4156 35.297 62.3568 35.2253 62.2869C35.1536 62.2152 35.1168 62.1453 35.1095 62.0699C35.104 62.0423 35.115 61.989 35.1426 61.9081C35.1702 61.8272 35.2033 61.7463 35.24 61.6654C35.2768 61.5845 35.3117 61.511 35.3467 61.4429C35.3816 61.3767 35.3982 61.34 35.3982 61.3326C35.3982 61.3326 35.3522 61.3841 35.2621 61.4889C35.1738 61.5937 35.0709 61.7059 34.9569 61.8272C34.841 61.9486 34.727 62.0571 34.613 62.1582C34.4972 62.2593 34.4163 62.3108 34.3667 62.3108C34.2858 62.3108 34.203 62.2814 34.1166 62.2244C34.0302 62.1655 33.9769 62.081 33.9585 61.967C33.9511 61.9192 33.9603 61.8364 33.9824 61.7187C34.0044 61.6011 34.0339 61.476 34.0743 61.3455C34.1148 61.2149 34.1644 61.0862 34.2232 60.963C34.2821 60.838 34.3483 60.7424 34.4237 60.6762C34.4604 60.6358 34.5064 60.6211 34.5579 60.6302C34.6094 60.6413 34.6609 60.6633 34.705 60.702C34.7509 60.7387 34.7932 60.7847 34.8318 60.8435C34.8686 60.9005 34.8907 60.952 34.8962 60.9998C34.9091 61.0476 34.9072 61.1065 34.8925 61.1763C34.8778 61.248 34.8558 61.3179 34.8282 61.3878C34.7988 61.4595 34.773 61.522 34.7491 61.5808C34.7234 61.6378 34.7087 61.6783 34.7031 61.7077C34.7344 61.6856 34.8061 61.6176 34.9164 61.4999C35.0268 61.3823 35.1444 61.2554 35.2695 61.1212C35.3926 60.9869 35.5085 60.8656 35.617 60.759C35.7254 60.6523 35.7953 60.5916 35.8247 60.5788C35.8505 60.5659 35.8928 60.5641 35.9553 60.5732C36.0178 60.5843 36.0803 60.6045 36.141 60.6339C36.2017 60.6652 36.2587 60.7001 36.3083 60.7461C36.3579 60.7884 36.3892 60.838 36.4002 60.8932C36.4131 60.9465 36.3892 61.0348 36.3304 61.1561C36.2715 61.2775 36.209 61.4043 36.141 61.533C36.073 61.6654 36.0123 61.7813 35.9608 61.8861C35.9075 61.989 35.8964 62.0534 35.9277 62.0736C35.959 62.0938 36.027 62.0662 36.1318 61.9927C36.2366 61.9192 36.3543 61.8272 36.4793 61.7206C36.6062 61.6121 36.7257 61.5036 36.836 61.3933C36.9482 61.283 37.0291 61.2039 37.0787 61.1561L37.0934 61.1451C37.1376 61.0734 37.1854 61.0017 37.2405 60.9355C37.349 60.8012 37.4612 60.6836 37.5788 60.5824C37.6965 60.4813 37.7921 60.4243 37.8657 60.4096C37.9208 60.4022 37.9833 60.4114 38.0514 60.4353C38.1176 60.4593 38.1874 60.4923 38.2555 60.531C38.3217 60.5732 38.3823 60.621 38.4356 60.678C38.4871 60.735 38.5294 60.7976 38.5607 60.8656C38.6526 60.7185 38.7243 60.6376 38.774 60.6229C38.8107 60.61 38.8585 60.6137 38.9174 60.6339C38.9762 60.6523 39.0332 60.6817 39.0847 60.7185C39.138 60.7571 39.184 60.7994 39.2208 60.8509C39.2575 60.9005 39.2759 60.9502 39.2759 60.998C39.2704 61.0513 39.2263 61.134 39.1472 61.2462C39.0663 61.3565 38.9615 61.4926 38.831 61.6525C38.7004 61.8144 38.557 62.0001 38.3989 62.2133C38.2426 62.4248 38.0808 62.662 37.9208 62.9249C37.9392 62.9047 38.0091 62.8238 38.1286 62.684C38.2499 62.5425 38.3989 62.377 38.5754 62.1839C38.7501 61.9927 38.9395 61.796 39.1399 61.5937C39.3403 61.3915 39.5278 61.2149 39.7007 61.0605L39.7043 61.055ZM38.3676 61.1359C38.3805 61.1083 38.3805 61.0789 38.3676 61.0439C38.3419 60.9759 38.3033 60.952 38.2481 60.9686C38.1911 60.9851 38.1304 61.0274 38.0624 61.0954C37.9944 61.1635 37.9263 61.2444 37.8583 61.3436C37.7903 61.4411 37.7296 61.5386 37.6781 61.636C37.6266 61.7335 37.5862 61.8235 37.5623 61.9026C37.5384 61.9835 37.5384 62.0368 37.5623 62.0644C37.5935 62.0975 37.6487 62.0828 37.7296 62.0184C37.8105 61.9559 37.8932 61.8805 37.9797 61.7904L38.3695 61.1359H38.3676ZM40.1125 61.1046C40.2431 61.0844 40.3644 61.0826 40.4784 61.1009C40.5943 61.1175 40.6954 61.1451 40.7855 61.1855C40.8756 61.226 40.9473 61.2793 40.9988 61.3473C41.0502 61.4154 41.0778 61.4926 41.0778 61.579C41.0778 61.6673 41.0502 61.7721 40.9988 61.8916C40.9473 62.0129 40.8793 62.1288 40.7947 62.2428C40.7119 62.3568 40.6145 62.4616 40.5078 62.5553C40.3994 62.6491 40.2964 62.7098 40.1971 62.7374C40.0923 62.7649 39.9893 62.7594 39.89 62.7263C39.7908 62.6932 39.7025 62.6436 39.6253 62.5756C39.548 62.5094 39.4837 62.4321 39.4359 62.3476C39.3844 62.263 39.3605 62.1876 39.3605 62.1196C39.3605 62.0718 39.3789 62.0184 39.412 61.9578C39.4469 61.8971 39.4911 61.8383 39.5462 61.7813C39.6014 61.7224 39.6639 61.6691 39.7319 61.6194C39.7981 61.568 39.868 61.5275 39.936 61.4926C40.0427 61.4393 40.1033 61.4374 40.1217 61.4871C40.1401 61.5385 40.1199 61.5992 40.0574 61.6746C40.039 61.6948 40.0096 61.7298 39.9691 61.7813C39.9287 61.8309 39.8882 61.8824 39.8478 61.932C39.8073 61.9835 39.7742 62.0313 39.7466 62.0791C39.7172 62.1269 39.7135 62.16 39.7338 62.1802C39.7632 62.2078 39.8183 62.1913 39.8956 62.1343C39.9728 62.0773 40.05 62.0037 40.1272 61.9118C40.2045 61.8217 40.2725 61.7298 40.3313 61.6397C40.3902 61.5477 40.4159 61.4797 40.4086 61.4319C40.3957 61.3841 40.3534 61.3639 40.2798 61.3657C40.2045 61.3694 40.1217 61.3731 40.0298 61.3767C39.936 61.3786 39.8422 61.3731 39.7466 61.3565C39.651 61.3381 39.5793 61.2903 39.5278 61.2094C39.4727 61.1212 39.4506 61.0219 39.4598 60.9116C39.469 60.8012 39.4984 60.6946 39.548 60.5935C39.5977 60.4923 39.6602 60.4059 39.7374 60.3361C39.8147 60.2643 39.89 60.2239 39.9654 60.2092C40.0151 60.2018 40.0684 60.211 40.1236 60.2386C40.1787 60.2662 40.2302 60.3011 40.2762 60.3452C40.3221 60.3894 40.3607 60.4372 40.392 60.4923C40.4233 60.5457 40.438 60.5953 40.438 60.6431C40.438 60.7387 40.3957 60.816 40.3166 60.8766C40.2357 60.9373 40.1677 61.0108 40.1125 61.0973V61.1046ZM51.9996 57.203C52.2717 57.2839 52.485 57.3905 52.6394 57.5247C52.7939 57.6589 52.884 57.8005 52.9134 57.9476C52.941 58.0965 52.9042 58.24 52.8012 58.376C52.7001 58.5139 52.5309 58.6279 52.2956 58.7143C52.1466 58.775 52.0088 58.7916 51.8819 58.764C51.755 58.7364 51.6502 58.696 51.5675 58.6371C51.4847 58.5801 51.4259 58.5213 51.3909 58.4606C51.356 58.3999 51.3579 58.3632 51.3946 58.3503C51.4755 58.3301 51.584 58.2988 51.7256 58.2547C51.8653 58.2124 51.9867 58.1517 52.0915 58.0782C52.3011 57.9237 52.3875 57.7895 52.3452 57.6755C52.3066 57.5615 52.1558 57.4769 51.8948 57.4273C51.6355 57.3758 51.2751 57.3611 50.8154 57.3813C50.3539 57.4015 49.8152 57.4696 49.1956 57.5836C48.8058 57.6516 48.4049 57.7417 47.9986 57.8502C47.5904 57.9623 47.1877 58.0984 46.7924 58.2584C46.3971 58.4202 46.0128 58.6095 45.6469 58.8283C45.2792 59.0471 44.939 59.2972 44.6301 59.5804C44.3323 59.8415 44.1392 60.0823 44.0491 60.303C43.9609 60.5199 43.959 60.6872 44.0454 60.8012C44.0767 60.8417 44.0712 60.8656 44.0326 60.8729C43.9921 60.8803 43.9388 60.8693 43.8745 60.8417C43.8083 60.8141 43.7439 60.77 43.674 60.7056C43.606 60.6413 43.5582 60.5585 43.5343 60.4574C43.4608 60.2018 43.4699 59.9573 43.5619 59.7219C43.6556 59.4866 43.7991 59.2659 43.994 59.0619C44.1889 58.8559 44.4169 58.6629 44.6798 58.4808C44.9427 58.2988 45.2112 58.1333 45.4833 57.9862C45.9522 57.7233 46.4651 57.51 47.0223 57.3409C47.5794 57.1735 48.1457 57.0559 48.7212 56.9878C49.2967 56.9216 49.8649 56.9051 50.4275 56.9382C50.992 56.9713 51.5141 57.0595 51.9959 57.2011L51.9996 57.203ZM45.9301 63.4048C45.9742 63.1235 46.0459 62.8164 46.1434 62.4873C46.2427 62.1582 46.3585 61.8235 46.4909 61.4852C46.6251 61.1451 46.7685 60.8104 46.923 60.4758C47.0774 60.1448 47.2374 59.8378 47.4047 59.5583C47.572 59.2807 47.7375 59.0343 47.9011 58.821C48.0648 58.6095 48.2192 58.4551 48.3608 58.354C48.4491 58.2933 48.5447 58.251 48.6495 58.2271C48.7525 58.2032 48.8517 58.194 48.94 58.1958C49.0301 58.1995 49.1036 58.2087 49.1588 58.2271C49.214 58.2436 49.2323 58.262 49.214 58.2823C49.0705 58.4441 48.9069 58.6537 48.7175 58.9129C48.53 59.1722 48.3351 59.4608 48.1383 59.7789C47.9398 60.0989 47.7412 60.4409 47.5444 60.8031C47.3459 61.1653 47.1675 61.5386 47.0075 61.9173C46.8457 62.2979 46.706 62.6749 46.5902 63.0536C46.4725 63.4305 46.3953 63.7891 46.3585 64.1311C46.3456 64.2138 46.3125 64.2543 46.2555 64.2543C46.2004 64.2543 46.1452 64.2175 46.0882 64.1476C46.0331 64.0759 45.9852 63.9803 45.9448 63.8553C45.9062 63.7321 45.9007 63.5813 45.9319 63.4066L45.9301 63.4048ZM49.6791 60.4096C49.7656 60.4096 49.8446 60.4335 49.9163 60.4813C49.988 60.5291 50.0285 60.5916 50.0414 60.6744C50.2032 60.713 50.3172 60.7976 50.3852 60.9263C50.4532 61.0531 50.4808 61.1984 50.4679 61.3602C50.6224 61.3804 50.7732 61.3528 50.9184 61.2793C51.0637 61.2058 51.1777 61.1138 51.2586 61.0072C51.3082 60.9465 51.3523 60.906 51.3928 60.8858C51.4314 60.8656 51.4645 60.8638 51.4902 60.8766C51.516 60.8895 51.527 60.9134 51.527 60.952C51.527 60.9888 51.516 61.0311 51.4902 61.0789C51.3909 61.2609 51.2475 61.4246 51.0582 61.5716C50.8688 61.7187 50.6205 61.8125 50.3116 61.8548C50.2307 61.989 50.1315 62.1104 50.0101 62.217C49.8906 62.3255 49.7453 62.4046 49.578 62.4597C49.5045 62.4873 49.4144 62.4873 49.3041 62.4597C49.1956 62.4321 49.0926 62.3825 48.9896 62.3071C48.8885 62.2336 48.8021 62.1398 48.7359 62.0258C48.6679 61.9118 48.6421 61.7831 48.6605 61.6434C48.6734 61.5091 48.7083 61.3694 48.7672 61.226C48.826 61.0807 48.9014 60.9483 48.9915 60.827C49.0816 60.7056 49.1845 60.6063 49.3022 60.5291C49.4199 60.4519 49.5468 60.4133 49.6828 60.4133L49.6791 60.4096ZM49.3077 62.0736C49.339 62.1269 49.4033 62.1269 49.5026 62.0736C49.6019 62.0203 49.6994 61.9357 49.7913 61.8217C49.7233 61.7684 49.6644 61.6948 49.6148 61.6047C49.5633 61.5128 49.5321 61.408 49.5118 61.2866C49.407 61.4411 49.3316 61.5937 49.2893 61.7463C49.2471 61.8971 49.2526 62.0074 49.3077 62.0736ZM54.8201 62.1435C54.4413 62.1435 54.1545 62.0718 53.9559 61.9265C53.7592 61.7813 53.6488 61.5882 53.6268 61.3455C53.6047 61.1028 53.6672 60.8251 53.8125 60.5089C53.9596 60.1926 54.1821 59.8672 54.4854 59.5326C54.787 59.1942 55.1676 58.8614 55.6217 58.5286C56.0759 58.1958 56.6018 57.8906 57.1938 57.6167C57.5652 57.442 57.9458 57.2912 58.3356 57.168C58.7254 57.043 59.106 56.9474 59.4774 56.8812C59.8489 56.8132 60.2019 56.7764 60.5347 56.769C60.8693 56.7617 61.169 56.7893 61.4356 56.8518C61.7004 56.9124 61.9247 57.0081 62.1067 57.1386C62.2906 57.271 62.412 57.4401 62.4726 57.6479C62.5168 57.795 62.5076 57.9458 62.4451 58.0966C62.3826 58.2473 62.2851 58.3944 62.1582 58.536C62.0277 58.6776 61.8732 58.8081 61.6949 58.9331C61.5147 59.0582 61.329 59.1685 61.1378 59.2659C60.9465 59.3634 60.7553 59.4425 60.5678 59.5087C60.3784 59.5712 60.2129 59.6116 60.0713 59.6245C59.8121 59.6576 59.608 59.6355 59.4591 59.5583C59.3101 59.4811 59.2219 59.3947 59.1888 59.3009C59.3064 59.288 59.4664 59.2512 59.6668 59.1942C59.8672 59.1372 60.0842 59.0674 60.3177 58.9828C60.5494 58.8982 60.7811 58.8008 61.0091 58.6904C61.2371 58.5783 61.4375 58.4624 61.6066 58.3374C61.7758 58.2142 61.9045 58.0855 61.9909 57.955C62.0792 57.8244 62.0902 57.692 62.0295 57.5578C61.9799 57.4512 61.8769 57.3758 61.7169 57.3372C61.5607 57.2967 61.3676 57.2839 61.1378 57.2967C60.9098 57.3096 60.6487 57.3501 60.3582 57.4181C60.0677 57.4861 59.7606 57.567 59.4388 57.6663C59.1171 57.7637 58.7879 57.8741 58.4515 57.9973C58.115 58.1223 57.7859 58.2547 57.4641 58.3963C56.9382 58.6242 56.4675 58.878 56.0538 59.1575C55.6383 59.4369 55.2889 59.7146 55.0058 59.9941C54.7208 60.2735 54.5038 60.5383 54.3549 60.7902C54.206 61.0421 54.1269 61.2591 54.1177 61.4411C54.1085 61.6231 54.1729 61.7537 54.3126 61.8346C54.4523 61.9155 54.6748 61.921 54.9764 61.8548C55.0334 61.761 55.1088 61.6231 55.2099 61.4466C55.3092 61.2683 55.4066 61.0807 55.5077 60.8858C55.607 60.6909 55.6971 60.4979 55.7817 60.3066C55.8644 60.1136 55.9251 59.9554 55.9619 59.8267C55.9803 59.7403 56.0281 59.687 56.1053 59.6705C56.1825 59.6521 56.2598 59.6631 56.337 59.6999C56.4142 59.7367 56.4841 59.7918 56.5411 59.8672C56.5999 59.9407 56.6275 60.029 56.6201 60.1301C56.5907 60.3581 56.5135 60.5916 56.3921 60.8251C56.2726 61.0605 56.1311 61.3014 55.9711 61.5514C56.1145 61.5036 56.2542 61.4356 56.3977 61.3455C56.5411 61.2536 56.679 61.1598 56.8114 61.0623C56.9438 60.9667 57.0725 60.8711 57.192 60.781C57.3133 60.6909 57.42 60.6174 57.5119 60.5641C57.5744 60.531 57.6645 60.5162 57.7822 60.5236C57.898 60.531 58.0047 60.5549 58.1003 60.5935C58.1959 60.6358 58.2621 60.6891 58.297 60.7608C58.3319 60.8325 58.2989 60.9171 58.1996 61.0182C58.0451 61.1598 57.8704 61.2848 57.6755 61.3951C57.4806 61.5073 57.2766 61.6029 57.0614 61.682C56.8481 61.7629 56.6312 61.8291 56.4069 61.8842C56.1825 61.9375 55.9711 61.978 55.7652 62.0056C55.6787 62.1471 55.5776 62.3255 55.4599 62.5406C55.3423 62.7558 55.2228 62.9709 55.1032 63.186C54.9837 63.4011 54.8697 63.5979 54.7649 63.7762C54.6583 63.9546 54.5792 64.0741 54.5241 64.1348C54.4064 64.258 54.2832 64.3554 54.1526 64.4326C54.0239 64.5098 53.9044 64.565 53.7996 64.5999C53.6948 64.633 53.6157 64.6422 53.5588 64.6294C53.5018 64.6165 53.4907 64.5816 53.522 64.5282C53.5771 64.4345 53.6672 64.2782 53.7904 64.0594C53.9155 63.8424 54.0442 63.6071 54.1765 63.3588C54.3089 63.1088 54.4376 62.8734 54.5572 62.6473C54.6785 62.4211 54.7649 62.2556 54.8219 62.1472L54.8201 62.1435ZM60.8142 61.1046C60.9576 61.0108 61.044 60.9833 61.0753 61.0237C61.1065 61.0642 61.0734 61.1377 60.9741 61.2462C60.8675 61.3528 60.7572 61.4632 60.6395 61.5735C60.5218 61.6856 60.406 61.7886 60.2901 61.8861C60.1761 61.9835 60.0621 62.0662 59.9518 62.1343C59.8415 62.2005 59.7385 62.2446 59.6448 62.2648C59.5639 62.2777 59.4719 62.2795 59.3671 62.2703C59.2623 62.2593 59.163 62.2317 59.0693 62.1839C58.9755 62.1361 58.9001 62.0718 58.8358 61.9872C58.7732 61.9026 58.7438 61.7941 58.7438 61.6599C58.7438 61.579 58.8008 61.4117 58.9148 61.1561C59.0306 60.9005 59.1796 60.6045 59.369 60.268C59.5583 59.9316 59.7716 59.5748 60.0088 59.1942C60.2479 58.8155 60.4942 58.4569 60.7516 58.1205C61.0091 57.784 61.261 57.4916 61.5092 57.2434C61.7574 56.9952 61.9836 56.8334 62.1876 56.7598C62.2502 56.7323 62.3347 56.7231 62.4487 56.7286C62.5591 56.7359 62.6675 56.758 62.7724 56.7948C62.8772 56.8315 62.9691 56.8867 63.0463 56.9566C63.1235 57.0283 63.1622 57.1092 63.1622 57.2048C63.1622 57.3114 63.1051 57.4604 62.9948 57.6479C62.8827 57.8355 62.7337 58.0469 62.548 58.2786C62.3623 58.5121 62.149 58.7603 61.9063 59.0269C61.6655 59.2917 61.4117 59.5565 61.147 59.8175C60.8804 60.0805 60.6137 60.3305 60.349 60.5696C60.0824 60.8068 59.8341 61.0182 59.6062 61.2002C59.5381 61.3014 59.483 61.3951 59.4388 61.4815C59.4021 61.5551 59.3726 61.6286 59.3506 61.6985C59.3285 61.7702 59.3322 61.818 59.3653 61.8456C59.3837 61.8658 59.4572 61.8456 59.5878 61.7849C59.7183 61.7243 59.8617 61.6507 60.0199 61.5624C60.1761 61.476 60.3324 61.3859 60.4832 61.2958C60.6358 61.2039 60.7443 61.1432 60.8105 61.1083L60.8142 61.1046ZM62.6896 57.2526C62.6657 57.2195 62.6069 57.2397 62.5168 57.3133C62.4285 57.3868 62.3182 57.4971 62.1876 57.6442C62.0571 57.7913 61.9155 57.966 61.7611 58.1646C61.6066 58.3613 61.4485 58.5672 61.2885 58.775C60.9116 59.2715 60.4906 59.847 60.0272 60.4997C60.1081 60.4317 60.235 60.314 60.4078 60.1467C60.5807 59.9794 60.7719 59.7826 60.9778 59.5565C61.1856 59.3321 61.397 59.0968 61.6177 58.8504C61.8365 58.604 62.0332 58.3742 62.2024 58.1536C62.3715 57.9366 62.5057 57.7435 62.6013 57.5799C62.6988 57.4144 62.7264 57.3059 62.6896 57.2526ZM63.4784 61.055C63.5667 60.9741 63.6365 60.9575 63.6917 61.009C63.7468 61.0587 63.7321 61.1377 63.6457 61.2462C63.62 61.2793 63.5519 61.3492 63.4416 61.454C63.3313 61.5588 63.1897 61.6948 63.0187 61.8677C62.8477 62.0387 62.6528 62.2391 62.434 62.4671C62.2134 62.6951 61.9872 62.9451 61.7519 63.2136C61.4742 63.5353 61.2463 63.8534 61.0661 64.166C60.8859 64.4767 60.7369 64.7636 60.6193 65.0173C60.5016 65.2729 60.4078 65.4862 60.3361 65.6572C60.2644 65.83 60.2019 65.9275 60.1467 65.955C60.0916 65.9826 60.0199 65.9973 59.9334 65.9992C59.847 66.0028 59.7661 65.9937 59.6926 65.9698C59.619 65.9477 59.5657 65.9091 59.5344 65.8576C59.5032 65.808 59.5197 65.7344 59.5804 65.6406C59.6245 65.5671 59.7165 65.3961 59.8636 65.1258C60.0088 64.8574 60.1798 64.5411 60.3784 64.1789C60.5751 63.8167 60.7921 63.4269 61.0219 63.0132C61.2554 62.6013 61.4779 62.2115 61.6949 61.8493C61.5699 61.9762 61.4503 62.0902 61.3327 62.1913C61.215 62.2924 61.1194 62.3421 61.0458 62.3421C61.0091 62.3421 60.9594 62.331 60.8987 62.3071C60.8362 62.2832 60.7737 62.2538 60.713 62.2152C60.6505 62.1784 60.5935 62.1343 60.542 62.0846C60.4887 62.0332 60.4556 61.978 60.4427 61.9173C60.4372 61.864 60.4611 61.7702 60.5126 61.6397C60.5659 61.5073 60.6321 61.3676 60.7167 61.2168C60.7994 61.0642 60.8895 60.9171 60.987 60.7718C61.0826 60.6284 61.1709 60.5199 61.2518 60.4445C61.2885 60.4114 61.34 60.4022 61.4044 60.4151C61.4687 60.428 61.5349 60.4574 61.5993 60.5015C61.6655 60.5438 61.7243 60.5971 61.7758 60.6578C61.8291 60.7185 61.8585 60.7718 61.864 60.8196C61.8824 60.8674 61.8512 60.952 61.7721 61.0715C61.6912 61.1929 61.6066 61.3124 61.5165 61.4301C61.4283 61.5477 61.3547 61.6489 61.2996 61.7316C61.2444 61.8162 61.2499 61.8438 61.318 61.818C61.3676 61.7978 61.4301 61.7555 61.5073 61.6856C61.5846 61.6176 61.6673 61.5404 61.7574 61.4485C61.8457 61.3584 61.9376 61.2609 62.0314 61.1616C62.1233 61.0605 62.2116 60.9704 62.2906 60.8895C62.3421 60.8435 62.3789 60.7994 62.4065 60.7626C62.4359 60.724 62.4579 60.7038 62.4763 60.6964C62.5205 60.6891 62.5701 60.6964 62.6253 60.7167C62.6804 60.7369 62.7337 60.7626 62.7834 60.7976C62.833 60.8307 62.8716 60.8729 62.9029 60.9244C62.9323 60.9741 62.9489 61.0237 62.9489 61.0715C62.9489 61.1248 62.9121 61.2021 62.8367 61.3032C62.7632 61.4043 62.6694 61.5312 62.5554 61.682C62.4414 61.8327 62.3072 62.0111 62.1564 62.2152C62.0038 62.4211 61.8512 62.6546 61.6967 62.9176C61.7151 62.8973 61.785 62.8164 61.9045 62.6767C62.0258 62.5351 62.1748 62.3696 62.3513 62.1766C62.526 61.9853 62.7154 61.7886 62.9158 61.5864C63.1162 61.3841 63.3037 61.2076 63.4766 61.0531L63.4784 61.055ZM63.7009 62.3457C63.6641 62.3457 63.6181 62.3365 63.5611 62.3163C63.506 62.2961 63.4545 62.2685 63.4085 62.2354C63.3626 62.2023 63.3258 62.1637 63.2982 62.1196C63.2706 62.0773 63.2596 62.0313 63.2651 61.9835C63.2725 61.9431 63.289 61.8916 63.3166 61.8272C63.3442 61.7629 63.3773 61.7004 63.414 61.636C63.4508 61.5735 63.4913 61.5146 63.5391 61.465C63.585 61.4135 63.631 61.3823 63.6751 61.3694C63.7174 61.362 63.7707 61.3731 63.8333 61.4007C63.8958 61.4282 63.9528 61.4632 64.0098 61.5073C64.0649 61.5496 64.1091 61.5955 64.144 61.6434C64.1789 61.6912 64.1918 61.7334 64.1863 61.7757C64.1863 61.8143 64.1679 61.8658 64.1311 61.9265C64.0944 61.9872 64.0502 62.0479 64.0006 62.1085C63.9509 62.1692 63.8976 62.2225 63.8425 62.2703C63.7873 62.3181 63.7395 62.3439 63.7027 62.3512L63.7009 62.3457ZM64.76 62.3457C64.7232 62.3457 64.6772 62.3365 64.6202 62.3163C64.5632 62.2961 64.5136 62.2685 64.4676 62.2354C64.4216 62.2023 64.3849 62.1637 64.3573 62.1196C64.3279 62.0773 64.3187 62.0313 64.3242 61.9835C64.3315 61.9431 64.3481 61.8916 64.3738 61.8272C64.4033 61.7629 64.4345 61.7004 64.4731 61.636C64.5099 61.5735 64.5522 61.5146 64.5982 61.465C64.6441 61.4135 64.6901 61.3823 64.7324 61.3694C64.7765 61.362 64.828 61.3731 64.8923 61.4007C64.953 61.4282 65.0119 61.4632 65.067 61.5073C65.1222 61.5496 65.1681 61.5955 65.2031 61.6434C65.238 61.6912 65.2509 61.7334 65.2435 61.7757C65.2435 61.8143 65.2251 61.8658 65.1884 61.9265C65.1498 61.9872 65.1075 62.0479 65.0578 62.1085C65.0082 62.1692 64.9549 62.2225 64.8979 62.2703C64.8427 62.3181 64.7967 62.3439 64.76 62.3512V62.3457ZM65.819 62.3457C65.7804 62.3457 65.7363 62.3365 65.6793 62.3163C65.6241 62.2961 65.5726 62.2685 65.5267 62.2354C65.4807 62.2023 65.4439 62.1637 65.4164 62.1196C65.3869 62.0773 65.3759 62.0313 65.3833 61.9835C65.3888 61.9431 65.4072 61.8916 65.4347 61.8272C65.4642 61.7629 65.4954 61.7004 65.5322 61.636C65.569 61.5735 65.6113 61.5146 65.6572 61.465C65.7032 61.4135 65.7492 61.3823 65.7915 61.3694C65.8356 61.362 65.8871 61.3731 65.9496 61.4007C66.0121 61.4282 66.0709 61.4632 66.1261 61.5073C66.1831 61.5496 66.2272 61.5955 66.2603 61.6434C66.2952 61.6912 66.31 61.7334 66.3026 61.7757C66.3026 61.8143 66.2842 61.8658 66.2474 61.9265C66.2107 61.9872 66.1684 62.0479 66.1169 62.1085C66.0672 62.1692 66.0158 62.2225 65.9588 62.2703C65.9036 62.3181 65.8576 62.3439 65.8209 62.3512L65.819 62.3457ZM11.8484 60.1375C11.8116 60.1375 11.7657 60.1264 11.7105 60.1062C11.6535 60.086 11.6039 60.0584 11.5579 60.0253C11.5119 59.9922 11.4752 59.9536 11.4476 59.9095C11.4182 59.8672 11.409 59.8212 11.4145 59.7734C11.42 59.733 11.4384 59.6797 11.4641 59.6116C11.4917 59.5454 11.5248 59.4792 11.5616 59.4149C11.5984 59.3524 11.6406 59.2954 11.6885 59.2476C11.7344 59.1998 11.7786 59.1703 11.8227 59.1575C11.8668 59.1501 11.9183 59.1593 11.9808 59.1832C12.0433 59.2053 12.1022 59.2384 12.1573 59.2843C12.2125 59.3266 12.2584 59.3744 12.2934 59.4259C12.3265 59.4756 12.3393 59.5178 12.3338 59.5528C12.3338 59.5932 12.3154 59.6447 12.2787 59.7091C12.2419 59.7716 12.1996 59.8359 12.1481 59.8966C12.0985 59.9573 12.047 60.0106 11.9918 60.0584C11.9348 60.1044 11.8907 60.132 11.8521 60.1393L11.8484 60.1375ZM12.2014 61.1249C12.3246 61.0035 12.4184 60.9686 12.4791 61.0145C12.5416 61.0605 12.5177 61.1579 12.4055 61.305C12.332 61.4062 12.2419 61.5128 12.1371 61.6231C12.0323 61.7334 11.9256 61.8383 11.8172 61.9357C11.7087 62.0332 11.6076 62.1177 11.5138 62.1876C11.4218 62.2575 11.3501 62.2998 11.3005 62.3145C11.2343 62.3218 11.1534 62.3071 11.0651 62.274C10.975 62.2409 10.8886 62.1894 10.8059 62.1214C10.7232 62.0534 10.6533 61.9725 10.6018 61.8732C10.5485 61.7776 10.5283 61.6654 10.5411 61.5459C10.554 61.4319 10.5816 61.3069 10.6294 61.1671C10.6753 61.0292 10.7287 60.9042 10.793 60.7902C10.8555 60.6762 10.9162 60.5824 10.9787 60.5071C11.0394 60.4335 11.0964 60.4004 11.146 60.4059C11.1902 60.4188 11.2361 60.4372 11.2858 60.4629C11.3354 60.485 11.3796 60.5126 11.42 60.5438C11.4605 60.5732 11.4917 60.61 11.5175 60.6486C11.5432 60.6909 11.5524 60.7369 11.5469 60.792C11.5395 60.8454 11.5119 60.9244 11.4641 61.0292C11.4145 61.1322 11.3648 61.2388 11.3152 61.3473C11.2656 61.454 11.2214 61.5533 11.1847 61.6397C11.1479 61.7261 11.1424 61.7813 11.1663 61.8015C11.1847 61.8144 11.2288 61.807 11.3005 61.7757C11.3722 61.7463 11.4549 61.7004 11.5506 61.6397C11.6462 61.579 11.7528 61.5055 11.8668 61.4172C11.9808 61.3308 12.0948 61.2315 12.2051 61.1249H12.2014ZM12.7034 60.3802C12.7402 60.3397 12.7898 60.3287 12.8523 60.3452C12.9149 60.3618 12.9755 60.3949 13.038 60.4464C13.1006 60.496 13.1539 60.5549 13.2017 60.6229C13.2477 60.6909 13.2771 60.7516 13.2899 60.8049C13.2973 60.8527 13.2605 60.9318 13.1796 61.0476C13.0987 61.1616 13.016 61.283 12.9332 61.4098C12.8505 61.5367 12.7898 61.6544 12.7567 61.7573C12.7218 61.8622 12.7549 61.9283 12.856 61.9541C12.8983 61.967 12.9755 61.9302 13.084 61.8419C13.1925 61.7537 13.312 61.647 13.4407 61.5202C13.3782 61.4319 13.3543 61.3363 13.3708 61.2333C13.3856 61.1285 13.4223 61.0348 13.4775 60.952C13.5326 60.8674 13.6025 60.7957 13.6853 60.735C13.768 60.6744 13.8507 60.6431 13.9316 60.6431H13.9408C14.0328 60.6431 14.099 60.6633 14.1412 60.7038C14.1817 60.7442 14.2038 60.7957 14.2056 60.8601C14.2093 60.9244 14.1964 60.9961 14.1688 61.077C14.1412 61.1579 14.099 61.2388 14.042 61.3197C14.1486 61.3804 14.2791 61.408 14.4373 61.4062C14.5954 61.4025 14.7443 61.3345 14.8877 61.1984C14.9245 61.1653 14.965 61.1396 15.0036 61.1267C15.0422 61.1138 15.0753 61.1083 15.101 61.112C15.1268 61.1157 15.1396 61.1285 15.1433 61.1524C15.1452 61.1763 15.1249 61.2113 15.0826 61.2591C14.9834 61.3676 14.8804 61.4632 14.7719 61.5459C14.6634 61.6286 14.5513 61.6948 14.4336 61.7426C14.3159 61.7904 14.1946 61.8144 14.0714 61.818C13.9463 61.8217 13.8232 61.7923 13.7 61.7316C13.5326 61.9081 13.3598 62.0589 13.1796 62.1913C12.9994 62.3237 12.8358 62.388 12.6887 62.388C12.6446 62.388 12.5949 62.3715 12.5361 62.3384C12.4772 62.3053 12.4202 62.2611 12.3632 62.2115C12.3081 62.16 12.2584 62.1067 12.2162 62.0497C12.172 61.9909 12.1444 61.9375 12.1334 61.8824C12.0966 61.7279 12.0893 61.5753 12.115 61.4282C12.1389 61.2811 12.1831 61.1414 12.2456 61.0108C12.3062 60.8785 12.3798 60.7608 12.4644 60.6523C12.5471 60.5457 12.628 60.4556 12.7089 60.382L12.7034 60.3802ZM16.1454 60.1375C16.1086 60.1375 16.0627 60.1264 16.0075 60.1062C15.9505 60.086 15.9009 60.0584 15.8549 60.0253C15.8089 59.9922 15.7722 59.9536 15.7427 59.9095C15.7152 59.8672 15.7041 59.8212 15.7115 59.7734C15.717 59.733 15.7354 59.6797 15.7611 59.6116C15.7887 59.5454 15.8218 59.4792 15.8586 59.4149C15.8953 59.3524 15.9376 59.2954 15.9854 59.2476C16.0314 59.1998 16.0755 59.1703 16.1197 59.1575C16.1638 59.1501 16.2153 59.1593 16.2778 59.1832C16.3403 59.2053 16.3973 59.2384 16.4543 59.2843C16.5095 59.3266 16.5536 59.3744 16.5885 59.4259C16.6235 59.4756 16.6363 59.5178 16.6308 59.5528C16.6308 59.5932 16.6124 59.6447 16.5757 59.7091C16.5389 59.7716 16.4948 59.8359 16.4451 59.8966C16.3955 59.9573 16.344 60.0106 16.2888 60.0584C16.2318 60.1044 16.1859 60.132 16.1491 60.1393L16.1454 60.1375ZM16.4984 61.1249C16.6216 61.0035 16.7154 60.9686 16.7761 61.0145C16.8386 61.0605 16.8128 61.1579 16.7025 61.305C16.629 61.4062 16.5389 61.5128 16.4322 61.6231C16.3274 61.7334 16.2208 61.8383 16.1123 61.9357C16.0038 62.0332 15.9045 62.1177 15.8108 62.1876C15.7188 62.2575 15.6471 62.2998 15.5975 62.3145C15.5313 62.3218 15.4504 62.3071 15.3603 62.274C15.272 62.2409 15.1856 62.1894 15.101 62.1214C15.0183 62.0534 14.9484 61.9725 14.8951 61.8732C14.8436 61.7776 14.8234 61.6654 14.8344 61.5459C14.8473 61.4319 14.8767 61.3069 14.9227 61.1671C14.9686 61.0292 15.022 60.9042 15.0845 60.7902C15.147 60.6762 15.2095 60.5824 15.2702 60.5071C15.3309 60.4335 15.3879 60.4004 15.4375 60.4059C15.4816 60.4188 15.5276 60.4372 15.5773 60.4629C15.6269 60.485 15.671 60.5126 15.7115 60.5438C15.7501 60.5732 15.7832 60.61 15.8089 60.6486C15.8347 60.6909 15.8439 60.7369 15.8365 60.792C15.831 60.8454 15.8034 60.9244 15.7538 61.0292C15.7041 61.1322 15.6545 61.2388 15.6048 61.3473C15.5552 61.454 15.5111 61.5533 15.4743 61.6397C15.4375 61.7261 15.432 61.7813 15.4559 61.8015C15.4743 61.8144 15.5184 61.807 15.5901 61.7757C15.6618 61.7463 15.7446 61.7004 15.8402 61.6397C15.9358 61.579 16.0424 61.5055 16.1546 61.4172C16.2686 61.3308 16.3826 61.2315 16.4929 61.1249H16.4984ZM16.7485 60.6817C16.7853 60.6413 16.8312 60.6266 16.8827 60.6358C16.936 60.6468 16.9857 60.6689 17.0316 60.7075C17.0776 60.7442 17.1199 60.7902 17.1567 60.849C17.1934 60.906 17.2155 60.9575 17.2229 61.0053C17.2357 61.0531 17.2339 61.112 17.2174 61.1818C17.2026 61.2536 17.1806 61.3234 17.153 61.3933C17.1236 61.465 17.0978 61.5275 17.0739 61.5864C17.05 61.6434 17.0353 61.6838 17.028 61.7132C17.0592 61.6912 17.1309 61.6231 17.2413 61.5055C17.3534 61.3878 17.4692 61.2609 17.5943 61.1267C17.7175 60.9925 17.8333 60.8711 17.9418 60.7645C18.0503 60.6578 18.1201 60.5972 18.1514 60.5843C18.1753 60.5714 18.2176 60.5696 18.2819 60.5788C18.3426 60.5898 18.4051 60.61 18.4658 60.6394C18.5283 60.6707 18.5835 60.7056 18.6331 60.7516C18.6828 60.7939 18.714 60.8435 18.7269 60.8987C18.7379 60.952 18.7159 61.0403 18.657 61.1616C18.5982 61.283 18.5357 61.4098 18.4676 61.5386C18.3996 61.6709 18.3389 61.7868 18.2875 61.8916C18.236 61.9945 18.2249 62.0589 18.2544 62.0791C18.2856 62.0993 18.3537 62.0718 18.4585 61.9982C18.5633 61.9247 18.6791 61.8327 18.8078 61.7261C18.9347 61.6176 19.0523 61.5091 19.1645 61.3988C19.2748 61.2885 19.3557 61.2094 19.4054 61.1616C19.455 61.1138 19.4955 61.0899 19.5304 61.0844C19.5653 61.0826 19.5911 61.0936 19.6095 61.1212C19.6279 61.1487 19.6352 61.1818 19.6334 61.2223C19.6297 61.2628 19.6168 61.305 19.5911 61.3528C19.5617 61.4006 19.4955 61.4834 19.3962 61.6011C19.2969 61.7187 19.1884 61.8419 19.0671 61.9743C18.9457 62.1049 18.8299 62.2244 18.7195 62.3329C18.6092 62.4395 18.5228 62.5057 18.4603 62.5241C18.3684 62.5645 18.2636 62.5774 18.1496 62.559C18.0356 62.5425 17.9252 62.5112 17.8223 62.4689C17.7156 62.4248 17.6274 62.366 17.5575 62.2961C17.4858 62.2244 17.4472 62.1545 17.4417 62.0791C17.4343 62.0515 17.4453 61.9982 17.4729 61.9173C17.5023 61.8364 17.5336 61.7555 17.5704 61.6746C17.609 61.5937 17.6439 61.5202 17.677 61.4521C17.712 61.3859 17.7285 61.3492 17.7285 61.3418C17.7285 61.3418 17.6825 61.3933 17.5924 61.4981C17.5042 61.6029 17.4012 61.7151 17.2872 61.8364C17.1714 61.9578 17.0592 62.0662 16.9434 62.1674C16.8294 62.2685 16.7466 62.32 16.697 62.32C16.6161 62.32 16.5334 62.2906 16.4469 62.2336C16.3605 62.1747 16.309 62.0901 16.2907 61.9762C16.2833 61.9283 16.2925 61.8456 16.3127 61.7279C16.3348 61.6103 16.3642 61.4852 16.4065 61.3547C16.4451 61.2241 16.4948 61.0954 16.5536 60.9722C16.6124 60.8472 16.6805 60.7516 16.754 60.6854L16.7485 60.6817ZM22.0273 61.055C22.0715 61.0145 22.1137 60.9925 22.1542 60.9888C22.1928 60.9851 22.2259 60.9943 22.2461 61.0145C22.2682 61.0348 22.2755 61.0642 22.2737 61.1046C22.2719 61.1451 22.248 61.1929 22.2038 61.2462C22.1781 61.2793 22.1119 61.3492 21.9997 61.454C21.8894 61.5588 21.746 61.6948 21.5732 61.8677C21.4003 62.0387 21.2054 62.2391 20.9885 62.4671C20.7715 62.6951 20.5453 62.9451 20.31 63.2136C20.0324 63.5353 19.8044 63.8534 19.6242 64.166C19.444 64.4767 19.2951 64.7636 19.1774 65.0173C19.0597 65.2729 18.9659 65.4862 18.8942 65.6572C18.8225 65.83 18.76 65.9275 18.7048 65.955C18.6497 65.9826 18.578 65.9973 18.4879 65.9992C18.3996 66.0028 18.3169 65.9937 18.2433 65.9698C18.1679 65.9477 18.1146 65.9091 18.0797 65.8576C18.0448 65.808 18.0558 65.7344 18.1128 65.6406C18.1551 65.58 18.2378 65.4439 18.3573 65.2269C18.4768 65.0118 18.6239 64.7544 18.7931 64.451C18.9623 64.1495 19.1498 63.8111 19.3539 63.4416C19.558 63.072 19.7713 62.6988 19.9937 62.3218C19.9202 62.3347 19.8411 62.3329 19.7602 62.3181C19.6793 62.2998 19.6039 62.2703 19.5322 62.2262C19.4605 62.1821 19.3999 62.1233 19.3484 62.0497C19.2951 61.9762 19.2601 61.8879 19.2417 61.7868C19.2105 61.6599 19.2289 61.5183 19.2969 61.3639C19.3649 61.2094 19.4532 61.066 19.5635 60.9318C19.672 60.7976 19.7841 60.6799 19.9018 60.5788C20.0195 60.4776 20.1151 60.4206 20.1886 60.4059C20.2438 60.3986 20.3063 60.4078 20.3744 60.4317C20.4405 60.4556 20.5104 60.4887 20.5784 60.5273C20.6465 60.5696 20.7072 60.6174 20.7586 60.6744C20.812 60.7314 20.8524 60.7939 20.8855 60.8619C20.9774 60.7148 21.0491 60.6339 21.0988 60.6192C21.1356 60.6063 21.1834 60.61 21.2422 60.6302C21.301 60.6486 21.3562 60.6781 21.4095 60.7148C21.461 60.7534 21.507 60.7957 21.5438 60.8472C21.5805 60.8969 21.5989 60.9465 21.5989 60.9943C21.5916 61.0476 21.5493 61.1304 21.4684 61.2425C21.3875 61.3528 21.2827 61.4889 21.1521 61.6489C21.0216 61.8107 20.8782 61.9964 20.7219 62.2097C20.5637 62.4211 20.4038 62.6583 20.2438 62.9212C20.2622 62.901 20.3321 62.8201 20.4516 62.6804C20.5711 62.5388 20.7219 62.3733 20.8965 62.1802C21.073 61.989 21.2606 61.7923 21.4628 61.59C21.6633 61.3878 21.8508 61.2113 22.0236 61.0568L22.0273 61.055ZM20.6906 61.1359C20.7035 61.1083 20.7035 61.0789 20.6906 61.0439C20.6667 60.9759 20.6263 60.952 20.5711 60.9686C20.5159 60.9851 20.4534 61.0274 20.3872 61.0954C20.3192 61.1635 20.2512 61.2444 20.1813 61.3436C20.1133 61.4411 20.0544 61.5386 20.0011 61.636C19.9496 61.7335 19.911 61.8235 19.8853 61.9026C19.8595 61.9835 19.8595 62.0368 19.8853 62.0644C19.9165 62.0975 19.9735 62.0828 20.0526 62.0184C20.1335 61.9559 20.2162 61.8805 20.3026 61.7904L20.6924 61.1359H20.6906ZM30.3602 61.9008C30.5349 61.7132 30.7279 61.4852 30.9449 61.2168C31.1619 60.9483 31.3843 60.656 31.6142 60.3434C31.8422 60.0308 32.0702 59.7091 32.3 59.3799C32.528 59.0508 32.7468 58.7346 32.9546 58.433C33.1623 58.1315 33.348 57.8502 33.5154 57.5909C33.6827 57.3317 33.8187 57.1147 33.9235 56.94C33.9474 56.8996 33.9824 56.8738 34.0247 56.8591C34.0688 56.8463 34.1074 56.8463 34.1405 56.8591C34.1754 56.872 34.1993 56.8959 34.2141 56.929C34.2288 56.9621 34.2288 57.0007 34.2104 57.0412C34.0192 57.4365 33.8077 57.863 33.5797 58.3154C33.3517 58.7695 33.1053 59.2273 32.8424 59.6925C32.5795 60.1559 32.3 60.6119 32.0076 61.0568C31.7135 61.5036 31.4009 61.921 31.0662 62.3071C30.7316 62.6951 30.3786 63.0371 30.0017 63.3349C29.6284 63.6346 29.2368 63.8645 28.8286 64.0263C28.6429 64.1017 28.4461 64.1439 28.2347 64.1531C28.0232 64.1642 27.8302 64.1348 27.65 64.0667C27.4698 64.0005 27.319 63.8921 27.1958 63.745C27.0708 63.5979 26.9973 63.3993 26.9734 63.1511C26.8005 63.3129 26.5946 63.4673 26.3556 63.6144C26.1184 63.7615 25.872 63.8645 25.6219 63.9251C25.3719 63.9858 25.1273 63.984 24.8846 63.9215C24.6438 63.8571 24.4378 63.6935 24.2631 63.4324C24.1271 63.2246 24.0462 62.9801 24.0223 62.7006C23.9984 62.4211 24.0204 62.1214 24.0866 61.8033C24.1547 61.4834 24.2595 61.1579 24.3992 60.8251C24.5371 60.4923 24.7044 60.1669 24.8993 59.847C25.0942 59.527 25.3057 59.2255 25.5337 58.9442C25.7617 58.6629 25.9989 58.4183 26.2434 58.2069C26.4879 57.9991 26.7325 57.8355 26.9752 57.7141C27.2197 57.5928 27.4533 57.5358 27.6757 57.5431C27.6996 57.5431 27.7382 57.5541 27.7916 57.5744C27.8431 57.5946 27.8927 57.6203 27.9387 57.6498C27.9846 57.681 28.0214 57.7086 28.0453 57.7362C28.0692 57.7637 28.0692 57.784 28.0453 57.7968C27.6059 58.012 27.2197 58.3062 26.8869 58.6776C26.5523 59.0508 26.236 59.4406 25.94 59.8433C25.861 59.9518 25.7433 60.1228 25.5925 60.3581C25.4399 60.5935 25.291 60.8527 25.1384 61.134C24.9858 61.4154 24.8478 61.7059 24.721 62.0001C24.5941 62.2961 24.5132 62.5609 24.4801 62.7907C24.4452 63.0242 24.4746 63.2062 24.5684 63.3405C24.6621 63.4747 24.846 63.5206 25.1255 63.482C25.5024 63.4287 25.8499 63.3 26.1643 63.0996C26.4806 62.8973 26.7785 62.6638 27.0561 62.3935C27.1793 61.9302 27.365 61.476 27.6132 61.0329C27.8596 60.588 28.1225 60.1706 28.402 59.7826C28.5013 59.641 28.6208 59.4792 28.7642 59.2935C28.9076 59.1097 29.0621 58.9368 29.2331 58.775C29.4022 58.6132 29.5788 58.4827 29.7608 58.3815C29.9428 58.2804 30.1248 58.2455 30.305 58.2712C30.4963 58.2988 30.5863 58.3889 30.5735 58.5489C30.5606 58.707 30.4834 58.9037 30.3363 59.1391C30.191 59.3744 29.9998 59.6355 29.7626 59.926C29.5236 60.2147 29.2772 60.5071 29.0198 60.7976C28.7624 61.0899 28.5142 61.3731 28.2715 61.6452C28.0306 61.9173 27.8394 62.1508 27.696 62.3457C27.6573 62.4321 27.6206 62.5333 27.5801 62.6473C27.5415 62.7613 27.5066 62.8789 27.4771 62.9948C27.4496 63.1125 27.4349 63.2301 27.4312 63.3478C27.4293 63.4636 27.4496 63.5703 27.4937 63.6659C27.5433 63.8001 27.6426 63.8534 27.7952 63.8277C27.9479 63.8001 28.1225 63.7284 28.3229 63.6107C28.5234 63.4949 28.7366 63.3441 28.9591 63.1676C29.1798 62.9893 29.3894 62.8127 29.5843 62.6381C29.781 62.4634 29.9483 62.3071 30.0899 62.1692C30.2315 62.0313 30.3216 61.9412 30.3584 61.9026L30.3602 61.9008ZM28.6907 60.7111C28.8451 60.5714 28.9996 60.4114 29.154 60.2331C29.3085 60.0566 29.4501 59.8837 29.5769 59.7183C29.7038 59.5546 29.8123 59.4112 29.9024 59.2899C29.9906 59.1685 30.0495 59.095 30.0734 59.0674C29.9557 59.1556 29.8343 59.2641 29.7056 59.3947C29.5788 59.527 29.4537 59.6668 29.3305 59.8194C29.2055 59.9702 29.0897 60.1228 28.9775 60.2772C28.8672 60.4317 28.7697 60.5751 28.6907 60.7093V60.7111ZM33.8224 60.1375C33.7856 60.1375 33.7397 60.1264 33.6827 60.1062C33.6275 60.086 33.576 60.0584 33.5301 60.0253C33.4841 59.9922 33.4473 59.9536 33.4197 59.9095C33.3922 59.8672 33.3811 59.8212 33.3867 59.7734C33.394 59.733 33.4106 59.6797 33.4381 59.6116C33.4657 59.5454 33.4988 59.4792 33.5356 59.4149C33.5724 59.3524 33.6146 59.2954 33.6606 59.2476C33.7066 59.1998 33.7525 59.1703 33.7967 59.1575C33.839 59.1501 33.8923 59.1593 33.9548 59.1832C34.0155 59.2053 34.0743 59.2384 34.1313 59.2843C34.1865 59.3266 34.2306 59.3744 34.2655 59.4259C34.3005 59.4756 34.3133 59.5178 34.3078 59.5528C34.3078 59.5932 34.2894 59.6447 34.2527 59.7091C34.2159 59.7716 34.1718 59.8359 34.1221 59.8966C34.0725 59.9573 34.021 60.0106 33.964 60.0584C33.9088 60.1044 33.861 60.132 33.8243 60.1393L33.8224 60.1375ZM34.1754 61.1249C34.2986 61.0035 34.3924 60.9686 34.4531 61.0145C34.5156 61.0605 34.4899 61.1579 34.3795 61.305C34.306 61.4062 34.2159 61.5128 34.1093 61.6231C34.0044 61.7334 33.8978 61.8383 33.7893 61.9357C33.6808 62.0332 33.5816 62.1177 33.4878 62.1876C33.394 62.2575 33.3241 62.2998 33.2745 62.3145C33.2065 62.3218 33.1274 62.3071 33.0373 62.274C32.949 62.2409 32.8608 62.1894 32.7781 62.1214C32.6953 62.0534 32.6273 61.9725 32.574 61.8732C32.5225 61.7776 32.5023 61.6654 32.5133 61.5459C32.5262 61.4319 32.5556 61.3069 32.6015 61.1671C32.6475 61.0292 32.7008 60.9042 32.7633 60.7902C32.8259 60.6762 32.8884 60.5824 32.949 60.5071C33.0116 60.4335 33.0667 60.4004 33.1164 60.4059C33.1587 60.4188 33.2046 60.4372 33.2543 60.4629C33.3058 60.485 33.348 60.5126 33.3903 60.5438C33.4308 60.5732 33.462 60.61 33.4878 60.6486C33.5117 60.6909 33.5227 60.7369 33.5154 60.792C33.5098 60.8454 33.4823 60.9244 33.4308 61.0292C33.3811 61.1322 33.3315 61.2388 33.2837 61.3473C33.234 61.454 33.1918 61.5533 33.155 61.6397C33.1182 61.7261 33.1108 61.7813 33.1366 61.8015C33.155 61.8144 33.2009 61.807 33.2727 61.7757C33.3444 61.7463 33.4271 61.7004 33.5227 61.6397C33.6183 61.579 33.7231 61.5055 33.8371 61.4172C33.953 61.3308 34.0651 61.2315 34.1773 61.1249H34.1754Z" fill="#FEFEFE"/>
<path d="M67.9041 9.82405V4.47534H69.9965C70.5224 4.47534 70.9048 4.52315 71.1438 4.61876C71.3829 4.71437 71.5741 4.88537 71.7175 5.12991C71.8609 5.37629 71.9326 5.65577 71.9326 5.97202C71.9326 6.37469 71.826 6.70565 71.609 6.96675C71.3921 7.22784 71.0684 7.39332 70.6382 7.46135C70.8515 7.59741 71.0298 7.74635 71.1677 7.90999C71.3075 8.07363 71.495 8.3623 71.7322 8.77968L72.3335 9.82221H71.1457L70.4323 8.65465C70.1767 8.23911 70.002 7.97802 69.9064 7.86954C69.8126 7.76289 69.7133 7.68751 69.6067 7.6489C69.5001 7.60844 69.3327 7.58822 69.1029 7.58822H68.9025V9.82221H67.9059L67.9041 9.82405ZM68.9006 6.73875H69.6361C70.1123 6.73875 70.4084 6.71669 70.5279 6.67256C70.6456 6.62843 70.7393 6.55304 70.8055 6.4464C70.8735 6.33976 70.9066 6.20554 70.9066 6.04373C70.9066 5.86354 70.8607 5.71829 70.7743 5.60613C70.686 5.49581 70.561 5.42594 70.401 5.39652C70.3201 5.38365 70.0774 5.37813 69.6766 5.37813H68.9006V6.73691V6.73875Z" fill="#FEFEFE"/>
<defs>
<linearGradient id="paint0_linear_62_120" x1="29.9538" y1="50.961" x2="29.9538" y2="30.7741" gradientUnits="userSpaceOnUse">
<stop stop-color="#B0CB1F"/>
<stop offset="1" stop-color="#5B6038"/>
</linearGradient>
<linearGradient id="paint1_linear_62_120" x1="18.521" y1="27.5213" x2="32.4287" y2="34.5708" gradientUnits="userSpaceOnUse">
<stop stop-color="#F08143"/>
<stop offset="1" stop-color="#CA272A"/>
</linearGradient>
<linearGradient id="paint2_linear_62_120" x1="40.9215" y1="52.6011" x2="40.9215" y2="29.1322" gradientUnits="userSpaceOnUse">
<stop stop-color="#393185"/>
<stop offset="1" stop-color="#E5097F"/>
</linearGradient>
<linearGradient id="paint3_linear_62_120" x1="49.3004" y1="26.9513" x2="41.5007" y2="35.1371" gradientUnits="userSpaceOnUse">
<stop stop-color="#66C3D0"/>
<stop offset="1" stop-color="#57A7B3"/>
</linearGradient>
</defs>
</svg>
